<svg xmlns="http://www.w3.org/2000/svg" width="26" height="22" viewBox="0 0 26 22">
    <g fill="#98A4AE" fill-rule="nonzero">
        <path d="M10.059 12.508H4.118a.588.588 0 0 0 0 1.178h5.94a.588.588 0 0 0 0-1.178zM18.941 4.562H13a.588.588 0 0 0 0 1.177h5.941a.588.588 0 0 0 0-1.177zM18.941 8.462H13a.588.588 0 0 0 0 1.177h5.941a.588.588 0 0 0 0-1.177zM18.941 12.361H13a.588.588 0 0 0 0 1.177h5.941a.588.588 0 0 0 0-1.177zM18.941 16.26H13a.588.588 0 0 0 0 1.178h5.941a.588.588 0 0 0 0-1.177zM10.059 16.26H4.118a.588.588 0 0 0 0 1.178h5.94a.588.588 0 0 0 0-1.177zM9.152 3.826H4.33a.476.476 0 0 0-.477.474v4.79c0 .263.214.475.477.475h4.823a.476.476 0 0 0 .478-.474V4.3a.476.476 0 0 0-.478-.475zm-.477 4.79H4.807V4.776h3.868v3.842z"/>
        <path d="M24.824 2.82h-1.765V1.129C23.059.506 22.53 0 21.882 0H1.176C.528 0 0 .506 0 1.128V19.18C0 20.735 1.32 22 2.941 22H23.06C24.68 22 26 20.735 26 19.18V3.948c0-.622-.528-1.128-1.176-1.128zm0 16.36c0 .933-.792 1.692-1.765 1.692H2.94c-.973 0-1.765-.76-1.765-1.693V1.13h20.706v17.204c0 .778.66 1.41 1.47 1.41a.577.577 0 0 0 .59-.564.577.577 0 0 0-.59-.564.289.289 0 0 1-.293-.282V3.95h1.765v15.23z"/>
    </g>
</svg>
