<svg xmlns="http://www.w3.org/2000/svg" width="55" height="58" viewBox="0 0 55 58">
    <g fill="none" fill-rule="nonzero">
        <path fill="#805333" d="M54.857 19.41v35.598a2.91 2.91 0 0 1-2.92 2.901h-3.42l2.261-2.176V26.68c0-1.202-.98-2.176-2.19-2.176H4.609c-.254 0-.499-.015-.735-.06C1.736 24.134.115 22.487.115 20.5c0-.09 0-.18.017-.263.068-.993.557-1.895 1.3-2.557.811-.73 1.934-1.173 3.175-1.173h47.33a2.91 2.91 0 0 1 2.92 2.901z"/>
        <path fill="#27A2DB" d="M39.436 43.637L13.78 33.076 27.169.954a1.557 1.557 0 0 1 2.03-.836l22.784 9.38a1.54 1.54 0 0 1 .84 2.017L39.437 43.637z"/>
        <path fill="#1C75A1" d="M24.358 37.42l-4.581-1.898L33.675 1.971l4.581 1.898z"/>
        <ellipse cx="18.896" cy="23.953" fill="#F6C358" rx="11.48" ry="11.409"/>
        <ellipse cx="18.896" cy="23.953" fill="#FCD462" rx="9.796" ry="9.735"/>
        <path fill="#F6C358" d="M18.9 32.47a8.683 8.683 0 0 1-1.666-.16l.127-.642a8.026 8.026 0 0 0 1.535.148l.008.592v.063H18.9zm1.675-.163l-.128-.642a7.923 7.923 0 0 0 1.483-.448l.253.605a8.581 8.581 0 0 1-1.608.485zm-4.95-.478a8.572 8.572 0 0 1-1.481-.786l.366-.545c.43.285.89.529 1.367.725l-.252.606zm8.038-.796l-.367-.544a7.957 7.957 0 0 0 1.197-.98l.467.464a8.61 8.61 0 0 1-1.297 1.06zm-10.819-1.048a8.606 8.606 0 0 1-1.068-1.287l.548-.366c.288.426.62.827.986 1.19l-.466.463zm13.181-1.302l-.548-.365c.288-.427.534-.884.731-1.358l.61.25a8.522 8.522 0 0 1-.793 1.473zm-15.044-1.455a8.43 8.43 0 0 1-.49-1.597l.646-.129c.102.504.254 1 .452 1.473l-.608.253zm16.323-1.615l-.647-.127c.1-.502.15-1.018.15-1.533v-.035h.66v.035c0 .558-.055 1.116-.163 1.66zm-16.98-1.643v-.017c0-.553.054-1.106.16-1.644l.647.126a7.885 7.885 0 0 0-.147 1.518l-.66.017zm16.327-1.584a7.785 7.785 0 0 0-.456-1.471l.608-.254c.217.513.383 1.05.494 1.596l-.646.13zM11.577 20.96l-.61-.25c.213-.514.479-1.01.79-1.473l.548.363a7.824 7.824 0 0 0-.728 1.36zm13.882-1.401a7.946 7.946 0 0 0-.99-1.187l.465-.465a8.6 8.6 0 0 1 1.07 1.285l-.545.367zm-12.173-1.152l-.467-.462a8.63 8.63 0 0 1 1.295-1.063l.368.544c-.429.286-.83.617-1.196.981zm9.982-1.009a7.916 7.916 0 0 0-1.37-.722l.251-.607a8.6 8.6 0 0 1 1.484.783l-.365.546zm-7.422-.703l-.254-.605a8.586 8.586 0 0 1 1.606-.489l.13.643a7.892 7.892 0 0 0-1.482.45zm4.568-.46a8.03 8.03 0 0 0-1.518-.146l-.019-.456.013-.199a8.994 8.994 0 0 1 1.65.157l-.126.643z"/>
        <path fill="#CB8252" d="M50.778 26.68v29.054c0 1.198-.98 2.179-2.192 2.179H5.05C2.322 57.913.115 55.71.115 53V20.5c0 1.986 1.624 3.631 3.754 3.94l.054.062h44.663c1.213 0 2.192.974 2.192 2.179z"/>
        <path fill="#D58E5F" d="M54.857 42.359v-8.052c-.252.87-1.384 2.128-5.702 2.493h-5.918c-.806 0-1.46.65-1.46 1.45v6.023c0 .801.654 1.45 1.46 1.45h5.918c6.8-.574 5.702-3.364 5.702-3.364z"/>
        <ellipse cx="45.792" cy="41.286" fill="#805333" rx="1.906" ry="1.894"/>
        <g fill="#805333" opacity=".4">
            <path d="M.114 30.068h1.943v1.16H.114zM4.39 30.068h3.885v1.16H4.39zM10.609 30.068h3.885v1.16h-3.885zM16.851 30.068h3.885v1.16h-3.885zM23.067 30.068h3.885v1.16h-3.885zM29.282 30.068h3.885v1.16h-3.885zM35.529 30.068h3.885v1.16h-3.885zM41.745 30.068h3.885v1.16h-3.885zM47.983 30.068h2.799v1.16h-2.799zM.114 51.236h1.943v1.16H.114zM4.39 51.237h3.885v1.16H4.39zM10.609 51.237h3.885v1.16h-3.885zM16.851 51.237h3.885v1.16h-3.885zM23.067 51.237h3.885v1.16h-3.885zM29.282 51.237h3.885v1.16h-3.885zM35.529 51.237h3.885v1.16h-3.885zM41.745 51.237h3.885v1.16h-3.885zM47.983 51.236h2.799v1.16h-2.799z"/>
        </g>
    </g>
</svg>
