<svg xmlns="http://www.w3.org/2000/svg" width="14" height="12" viewBox="0 0 14 12">
    <path fill="#000" fill-rule="nonzero" d="M.494 12h13.012a.494.494 0 0 0 .494-.505v-8.97a.494.494 0 0 0-.494-.504H9.73V.505A.494.494 0 0 0 9.237 0H4.775a.494.494 0 0 0-.494.505v1.528H.494A.494.494 0 0 0 0 2.538v8.97c.012.27.23.492.494.492zM5.27 1.01h3.472v1.023H5.27V1.01zM.989 3.03h3.666a.327.327 0 0 0 .108.013c.036 0 .072 0 .109-.012h4.244c.036.012.073.012.109.012.036 0 .072 0 .108-.012H13v3.474H9.731v-.604a.494.494 0 1 0-.989 0v.604H5.27v-.604a.494.494 0 1 0-.99 0v.604H.99V3.031zm0 4.485H4.28v.567a.494.494 0 1 0 .989 0v-.567h3.472v.567a.494.494 0 1 0 .99 0v-.567h3.291v3.475H.99V7.515z" opacity=".36"/>
</svg>
