<svg xmlns="http://www.w3.org/2000/svg" width="60" height="60" viewBox="0 0 60 60">
    <g fill="none" fill-rule="nonzero">
        <path fill="#1B8D4C" d="M59.925 22.676L15.471 48.705 2.249 26.123 46.703.094z"/>
        <path fill="#24AE5F" d="M43.272 5.058L8.228 25.535c.763 1.299.295 2.986-1.044 3.769l7.92 13.5c1.34-.782 3.044-.363 3.806.936l35.043-20.477c-.762-1.3-.295-2.987 1.045-3.77l-7.922-13.5c-1.339.782-3.042.364-3.804-.935z"/>
        <g fill="#31978C" transform="translate(20.366 12.657)">
            <ellipse cx="10.725" cy="11.74" rx="8.944" ry="7.052" transform="rotate(-120.35 10.725 11.74)"/>
            <ellipse cx="27.993" cy="1.65" rx="1.598" ry="1.595"/>
        </g>
        <ellipse cx="13.82" cy="34.494" fill="#3EA69B" rx="1.598" ry="1.595"/>
        <path fill="#44C4A1" d="M34.4 30.795l-.64-1.093c-1.453.661-3.002.837-4.647.525l.331-1.942c1.267.238 2.386.167 3.359-.214l-1.704-2.903c-1.288.39-2.323.52-3.106.388-.782-.133-1.426-.63-1.933-1.493-.506-.863-.618-1.745-.335-2.648s.895-1.661 1.836-2.278l-.44-.749.96-.56.448.763c1.146-.562 2.405-.796 3.778-.7l-.168 1.947a5.616 5.616 0 0 0-2.653.384l1.65 2.814.045-.027c1.308-.402 2.366-.531 3.175-.388.81.144 1.47.652 1.982 1.525.513.873.62 1.765.322 2.676-.298.911-.941 1.689-1.932 2.335l.632 1.077-.96.56zm-6.725-9.042c-.124.373-.087.727.11 1.061.195.334.45.54.765.617.313.079.803.043 1.469-.104l-1.52-2.59c-.426.304-.701.642-.824 1.016zm7.007 4.717a1.245 1.245 0 0 0-.09-1.113c-.204-.349-.476-.562-.816-.638-.341-.076-.864-.028-1.568.143l1.58 2.693c.45-.33.748-.691.894-1.085z"/>
        <path fill="#F6C358" d="M42.015 33.162l-8.632 5.054L20.16 15.634l8.633-5.054z"/>
        <g fill="#FFF">
            <path d="M34.683 37.454l-.863.506-13.222-22.582.863-.505zM41.376 33.539l-.863.505-13.222-22.582.863-.505z"/>
        </g>
        <path fill="#1B8D4C" d="M59.03 41.305L8.445 51.031l-4.94-25.696 50.584-9.725z"/>
        <path fill="#24AE5F" d="M9.583 46.996L6.048 28.643a1.87 1.87 0 0 0 1.486-2.189l43.23-8.292a1.873 1.873 0 0 0 2.193 1.483l3.535 18.353a1.87 1.87 0 0 0-1.486 2.188l-43.23 8.293a1.873 1.873 0 0 0-2.193-1.483z"/>
        <g transform="translate(10 23.124)">
            <ellipse cx="21.268" cy="10.196" fill="#1B8D4C" rx="8.944" ry="7.051" transform="rotate(-100.883 21.268 10.196)"/>
            <ellipse cx="40.92" cy="6.427" fill="#3EA69B" rx="1.598" ry="1.595"/>
            <ellipse cx="1.618" cy="13.966" fill="#3EA69B" rx="1.598" ry="1.595"/>
        </g>
        <path fill="#24AE5F" d="M32.255 40.451l-.24-1.243c-1.59.14-3.109-.21-4.555-1.05l.96-1.721c1.115.645 2.193.95 3.238.915l-.637-3.304c-1.345-.06-2.364-.282-3.057-.667-.694-.386-1.135-1.069-1.324-2.051-.19-.982 0-1.85.568-2.608.568-.757 1.398-1.269 2.492-1.537l-.164-.852 1.091-.21.167.869c1.27-.149 2.535.05 3.796.597l-.808 1.78a5.618 5.618 0 0 0-2.63-.52l.617 3.201.05-.01c1.368.056 2.409.286 3.123.69.716.405 1.17 1.104 1.36 2.097.192.994-.005 1.871-.59 2.63-.586.76-1.452 1.28-2.602 1.559l.236 1.226-1.091.21zM28.933 29.69a1.24 1.24 0 0 0-.25 1.037c.073.38.244.66.515.837.269.178.743.308 1.42.39l-.568-2.946c-.503.144-.876.371-1.117.682zm5.031 6.779c.268-.322.365-.682.288-1.08-.077-.396-.262-.688-.557-.873-.296-.184-.805-.313-1.526-.387l.59 3.065c.535-.16.936-.403 1.205-.725z"/>
        <path fill="#F6C358" d="M20.921 55.551c0 2.424-4.683 4.39-10.46 4.39C4.684 59.94 0 57.974 0 55.55v-3.59h20.92v3.59z"/>
        <ellipse cx="10.461" cy="51.958" fill="#FCD462" rx="10.46" ry="4.387"/>
        <g fill="#DC8744">
            <path d="M10.46 48.429c-5.041 0-9.128 1.581-9.128 3.532 0 1.95 4.087 3.531 9.129 3.531s9.129-1.58 9.129-3.531c0-1.95-4.087-3.532-9.13-3.532zm0 6.67c-4.48 0-8.114-1.405-8.114-3.139 0-1.733 3.633-3.139 8.115-3.139 4.481 0 8.115 1.406 8.115 3.14 0 1.733-3.634 3.139-8.115 3.139z"/>
            <path d="M10.127 54.4v-.43c-1.39-.054-2.64-.268-3.743-.64l1.11-.513c.852.287 1.729.457 2.633.512v-1.142c-1.147-.106-1.987-.245-2.519-.418-.532-.172-.799-.428-.799-.768s.306-.617.92-.833c.615-.216 1.413-.333 2.398-.353v-.294h.973v.3c1.115.031 2.17.178 3.165.441l-.99.542a10.341 10.341 0 0 0-2.175-.341v1.106h.046c1.166.106 2.023.25 2.57.43.549.18.822.442.822.786 0 .343-.314.623-.943.838-.63.216-1.46.334-2.495.354v.423h-.973zm-1.074-3.799c-.259.088-.388.198-.388.33 0 .131.102.235.305.311.202.077.588.15 1.157.221v-1.018c-.457.016-.815.068-1.074.156zm3.203 2.58c.284-.09.426-.203.426-.34 0-.138-.111-.247-.334-.327-.224-.08-.64-.156-1.248-.227v1.06c.486-.02.871-.075 1.156-.165z"/>
        </g>
        <path fill="#F6C358" d="M20.921 51.19c0 2.424-4.683 4.39-10.46 4.39C4.684 55.58 0 53.615 0 51.19V47.6h20.92v3.59z"/>
        <ellipse cx="10.461" cy="47.602" fill="#FCD462" rx="10.46" ry="4.387"/>
        <g fill="#DC8744">
            <path d="M10.46 44.068c-5.041 0-9.128 1.582-9.128 3.532s4.087 3.532 9.129 3.532S19.59 49.55 19.59 47.6c0-1.95-4.087-3.532-9.13-3.532zm0 6.671c-4.48 0-8.114-1.405-8.114-3.139 0-1.734 3.633-3.14 8.115-3.14 4.481 0 8.115 1.406 8.115 3.14 0 1.734-3.634 3.14-8.115 3.14z"/>
            <path d="M10.127 50.04v-.43c-1.39-.055-2.64-.269-3.743-.641l1.11-.512c.852.286 1.729.457 2.633.512v-1.142c-1.147-.106-1.987-.246-2.519-.418-.532-.173-.799-.429-.799-.768 0-.34.306-.617.92-.833.615-.216 1.413-.334 2.398-.353v-.295h.973v.3c1.115.032 2.17.179 3.165.442l-.99.542a10.341 10.341 0 0 0-2.175-.342v1.107h.046c1.166.106 2.023.249 2.57.43.549.18.822.442.822.785 0 .344-.314.623-.943.839-.63.216-1.46.334-2.495.353v.424h-.973zm-1.074-3.8c-.259.089-.388.199-.388.33 0 .132.102.236.305.312.202.077.588.15 1.157.22v-1.018c-.457.016-.815.068-1.074.157zm3.203 2.581c.284-.09.426-.203.426-.34 0-.138-.111-.247-.334-.328-.224-.08-.64-.155-1.248-.226v1.06c.486-.02.871-.075 1.156-.166z"/>
        </g>
        <path fill="#F6C358" d="M20.921 46.83c0 2.424-4.683 4.39-10.46 4.39C4.684 51.22 0 49.253 0 46.83v-3.59h20.92v3.59z"/>
        <ellipse cx="10.461" cy="43.24" fill="#FCD462" rx="10.46" ry="4.387"/>
        <g fill="#DC8744">
            <path d="M10.46 39.708c-5.041 0-9.128 1.581-9.128 3.532 0 1.95 4.087 3.531 9.129 3.531s9.129-1.58 9.129-3.531-4.087-3.532-9.13-3.532zm0 6.67c-4.48 0-8.114-1.405-8.114-3.138 0-1.734 3.633-3.14 8.115-3.14 4.481 0 8.115 1.406 8.115 3.14 0 1.733-3.634 3.139-8.115 3.139z"/>
            <path d="M10.127 45.68v-.43c-1.39-.055-2.64-.27-3.743-.642l1.11-.512c.852.287 1.729.457 2.633.512v-1.142c-1.147-.106-1.987-.245-2.519-.418-.532-.172-.799-.428-.799-.768 0-.339.306-.617.92-.833.615-.216 1.413-.333 2.398-.353V40.8h.973v.3c1.115.032 2.17.179 3.165.442l-.99.541a10.341 10.341 0 0 0-2.175-.341v1.106h.046c1.166.106 2.023.25 2.57.43.549.18.822.443.822.786s-.314.623-.943.839c-.63.216-1.46.333-2.495.353v.423h-.973zm-1.074-3.8c-.259.088-.388.198-.388.33 0 .131.102.235.305.311.202.077.588.15 1.157.221v-1.018c-.457.016-.815.068-1.074.156zm3.203 2.581c.284-.09.426-.204.426-.341 0-.138-.111-.246-.334-.327-.224-.08-.64-.156-1.248-.227v1.06c.486-.02.871-.075 1.156-.165z"/>
        </g>
        <path fill="#F6C358" d="M20.921 42.47c0 2.423-4.683 4.389-10.46 4.389-5.777 0-10.46-1.965-10.46-4.39v-3.59h20.92v3.59z"/>
        <ellipse cx="10.461" cy="38.879" fill="#FCD462" rx="10.46" ry="4.387"/>
        <g fill="#DC8744">
            <path d="M10.46 35.347c-5.041 0-9.128 1.581-9.128 3.532 0 1.95 4.087 3.532 9.129 3.532s9.129-1.581 9.129-3.532c0-1.95-4.087-3.532-9.13-3.532zm0 6.671c-4.48 0-8.114-1.405-8.114-3.139 0-1.734 3.633-3.14 8.115-3.14 4.481 0 8.115 1.406 8.115 3.14 0 1.734-3.634 3.14-8.115 3.14z"/>
            <path d="M10.127 41.319v-.43c-1.39-.055-2.64-.269-3.743-.641l1.11-.512c.852.286 1.729.457 2.633.512v-1.142C8.98 39 8.14 38.86 7.608 38.688s-.799-.429-.799-.768c0-.34.306-.617.92-.833.615-.216 1.413-.334 2.398-.353v-.295h.973v.3c1.115.032 2.17.179 3.165.442l-.99.542a10.341 10.341 0 0 0-2.175-.342v1.107h.046c1.166.106 2.023.249 2.57.43.549.18.822.442.822.785 0 .344-.314.623-.943.839-.63.216-1.46.334-2.495.353v.424h-.973zm-1.074-3.8c-.259.089-.388.199-.388.33s.102.235.305.312c.202.077.588.15 1.157.22v-1.018c-.457.016-.815.068-1.074.156zm3.203 2.581c.284-.09.426-.203.426-.34 0-.138-.111-.247-.334-.327-.224-.08-.64-.156-1.248-.227v1.06c.486-.02.871-.075 1.156-.166z"/>
        </g>
        <path fill="#F6C358" d="M42.98 55.551c0 2.424-4.683 4.39-10.46 4.39-5.777 0-10.46-1.966-10.46-4.39v-3.59h20.92v3.59z"/>
        <ellipse cx="32.519" cy="51.958" fill="#FCD462" rx="10.46" ry="4.387"/>
        <g fill="#DC8744">
            <path d="M32.52 48.429c-5.042 0-9.13 1.581-9.13 3.532 0 1.95 4.088 3.531 9.13 3.531 5.042 0 9.129-1.58 9.129-3.531 0-1.95-4.087-3.532-9.13-3.532zm0 6.67c-4.482 0-8.115-1.405-8.115-3.139 0-1.733 3.633-3.139 8.115-3.139 4.481 0 8.115 1.406 8.115 3.14 0 1.733-3.634 3.139-8.115 3.139z"/>
            <path d="M32.185 54.4v-.43c-1.39-.054-2.638-.268-3.743-.64l1.111-.513c.852.287 1.729.457 2.632.512v-1.142c-1.146-.106-1.986-.245-2.518-.418-.532-.172-.799-.428-.799-.768s.306-.617.92-.833c.614-.216 1.413-.333 2.397-.353v-.294h.974v.3c1.115.031 2.17.178 3.165.441l-.99.542a10.341 10.341 0 0 0-2.175-.341v1.106h.046c1.166.106 2.023.25 2.57.43.549.18.822.442.822.786 0 .343-.314.623-.943.838-.63.216-1.46.334-2.495.354v.423h-.974zm-1.073-3.799c-.259.088-.388.198-.388.33 0 .131.102.235.305.311.202.077.588.15 1.156.221v-1.018c-.456.016-.814.068-1.073.156zm3.203 2.58c.284-.09.426-.203.426-.34 0-.138-.111-.247-.334-.327-.224-.08-.64-.156-1.248-.227v1.06c.486-.02.871-.075 1.156-.165z"/>
        </g>
        <path fill="#F6C358" d="M42.98 51.19c0 2.424-4.683 4.39-10.46 4.39-5.777 0-10.46-1.965-10.46-4.39V47.6h20.92v3.59z"/>
        <ellipse cx="32.519" cy="47.602" fill="#FCD462" rx="10.46" ry="4.387"/>
        <g fill="#DC8744">
            <path d="M32.52 44.068c-5.042 0-9.13 1.582-9.13 3.532s4.088 3.532 9.13 3.532c5.042 0 9.129-1.581 9.129-3.532 0-1.95-4.087-3.532-9.13-3.532zm0 6.671c-4.482 0-8.115-1.405-8.115-3.139 0-1.734 3.633-3.14 8.115-3.14 4.481 0 8.115 1.406 8.115 3.14 0 1.734-3.634 3.14-8.115 3.14z"/>
            <path d="M32.185 50.04v-.43c-1.39-.055-2.638-.269-3.743-.641l1.111-.512c.852.286 1.729.457 2.632.512v-1.142c-1.146-.106-1.986-.246-2.518-.418-.532-.173-.799-.429-.799-.768 0-.34.306-.617.92-.833.614-.216 1.413-.334 2.397-.353v-.295h.974v.3c1.115.032 2.17.179 3.165.442l-.99.542a10.341 10.341 0 0 0-2.175-.342v1.107h.046c1.166.106 2.023.249 2.57.43.549.18.822.442.822.785 0 .344-.314.623-.943.839-.63.216-1.46.334-2.495.353v.424h-.974zm-1.073-3.8c-.259.089-.388.199-.388.33 0 .132.102.236.305.312.202.077.588.15 1.156.22v-1.018c-.456.016-.814.068-1.073.157zm3.203 2.581c.284-.09.426-.203.426-.34 0-.138-.111-.247-.334-.328-.224-.08-.64-.155-1.248-.226v1.06c.486-.02.871-.075 1.156-.166z"/>
        </g>
    </g>
</svg>
