<svg xmlns="http://www.w3.org/2000/svg" width="14" height="14" viewBox="0 0 14 14">
    <path fill="#3B5998" fill-rule="nonzero" d="M12.107 0H1.886A1.886 1.886 0 0 0 0 1.886v10.221c0 1.041.844 1.886 1.886 1.886h5.04l.01-5h-1.3a.306.306 0 0 1-.306-.306l-.006-1.612c-.001-.17.136-.307.306-.307h1.297V5.21c0-1.807 1.104-2.791 2.716-2.791h1.323c.17 0 .306.137.306.306v1.36c0 .169-.137.306-.306.306h-.812c-.877 0-1.046.417-1.046 1.028v1.349h1.926c.184 0 .326.16.305.342l-.191 1.612a.307.307 0 0 1-.305.27H9.116l-.008 5h3a1.886 1.886 0 0 0 1.885-1.885V1.886A1.886 1.886 0 0 0 12.107 0z"/>
</svg>
