<svg xmlns="http://www.w3.org/2000/svg" width="16" height="16" viewBox="0 0 16 16">
    <path fill="#767984" fill-rule="nonzero" d="M13.837 0H2.155C.965 0 0 .965 0 2.155v11.682c0 1.19.965 2.155 2.155 2.155h5.761l.01-5.715H6.442a.35.35 0 0 1-.35-.349l-.008-1.842a.35.35 0 0 1 .35-.352h1.482v-1.78c0-2.065 1.262-3.19 3.104-3.19h1.512a.35.35 0 0 1 .35.35v1.554a.35.35 0 0 1-.35.35h-.927c-1.002 0-1.196.477-1.196 1.176v1.54h2.202a.35.35 0 0 1 .347.392l-.218 1.842a.35.35 0 0 1-.348.31H10.42l-.01 5.714h3.428c1.19 0 2.155-.965 2.155-2.155V2.155C15.992.965 15.027 0 13.837 0z"/>
</svg>
