<svg xmlns="http://www.w3.org/2000/svg" width="25" height="16" viewBox="0 0 25 16">
    <g fill="#767984" fill-rule="nonzero">
        <path d="M8.718 9.653H12.6c-.681 1.933-2.527 3.32-4.688 3.304-2.621-.02-4.789-2.125-4.89-4.754-.11-2.819 2.143-5.146 4.927-5.146 1.274 0 2.435.487 3.311 1.284.208.19.524.19.728-.002l1.425-1.347a.536.536 0 0 0 .002-.778A7.905 7.905 0 0 0 8.108.03C3.725-.056.03 3.55 0 7.95c-.03 4.432 3.54 8.035 7.95 8.035 4.24 0 7.704-3.332 7.936-7.53.006-.052.01-1.83.01-1.83H8.718a.534.534 0 0 0-.533.534v1.959c0 .295.239.535.533.535zM22.474 6.802V4.888a.468.468 0 0 0-.467-.469h-1.605a.468.468 0 0 0-.467.469v1.914h-1.907a.468.468 0 0 0-.467.469v1.61c0 .26.209.47.467.47h1.907v1.913c0 .26.21.469.467.469h1.605c.258 0 .467-.21.467-.469V9.35h1.907c.258 0 .467-.21.467-.468V7.27a.468.468 0 0 0-.467-.469h-1.907z"/>
    </g>
</svg>
