<svg xmlns="http://www.w3.org/2000/svg" width="20" height="16" viewBox="0 0 20 16">
    <path fill="#767984" fill-rule="nonzero" d="M19.205 1.88c-.434.189-.884.338-1.346.446A4.116 4.116 0 0 0 18.967.592c.061-.19-.148-.354-.322-.252a7.839 7.839 0 0 1-2.057.836.55.55 0 0 1-.489-.12A4.249 4.249 0 0 0 13.315.023c-.444 0-.892.068-1.333.202a4.036 4.036 0 0 0-2.747 2.888 4.341 4.341 0 0 0-.1 1.523.147.147 0 0 1-.037.116.157.157 0 0 1-.131.051A11.088 11.088 0 0 1 1.384.82a.222.222 0 0 0-.36.028 4.08 4.08 0 0 0-.57 2.08c0 1.121.458 2.178 1.254 2.949a3.81 3.81 0 0 1-.96-.366.22.22 0 0 0-.326.187c-.021 1.666.97 3.148 2.457 3.816a3.831 3.831 0 0 1-.799-.066.218.218 0 0 0-.25.279c.482 1.48 1.778 2.572 3.33 2.82a7.858 7.858 0 0 1-4.348 1.298H.325a.321.321 0 0 0-.315.239.326.326 0 0 0 .16.362 11.699 11.699 0 0 0 5.802 1.538c1.784 0 3.452-.348 4.96-1.034a10.937 10.937 0 0 0 3.627-2.673 11.682 11.682 0 0 0 2.222-3.659c.494-1.297.755-2.682.755-4.004v-.063a.7.7 0 0 1 .268-.548 8.228 8.228 0 0 0 1.673-1.805c.123-.18-.07-.406-.272-.318z"/>
</svg>
