<svg xmlns="http://www.w3.org/2000/svg" width="14" height="14" viewBox="0 0 14 14">
    <g fill="none" fill-rule="evenodd">
        <path d="M0 0h14v14H0z"/>
        <path fill="#FBBC05" d="M3.017 7c0-.455.076-.89.21-1.3L.868 3.9A6.996 6.996 0 0 0 .15 7c0 1.115.26 2.166.718 3.099l2.358-1.805A4.141 4.141 0 0 1 3.017 7"/>
        <path fill="#EA4335" d="M7.16 2.864c.987 0 1.88.35 2.58.922l2.04-2.036C10.536.668 8.943 0 7.16 0A6.989 6.989 0 0 0 .867 3.899l2.36 1.802a4.131 4.131 0 0 1 3.931-2.837"/>
        <path fill="#34A853" d="M7.16 11.136A4.131 4.131 0 0 1 3.226 8.3L.868 10.101A6.989 6.989 0 0 0 7.16 14c1.71 0 3.343-.607 4.568-1.745l-2.24-1.73c-.632.397-1.427.611-2.328.611"/>
        <path fill="#4285F4" d="M13.85 7c0-.414-.063-.86-.159-1.273H7.16v2.705h3.76a3.152 3.152 0 0 1-1.432 2.092l2.24 1.731C13.014 11.061 13.85 9.282 13.85 7"/>
    </g>
</svg>
