<svg xmlns="http://www.w3.org/2000/svg" width="22" height="14" viewBox="0 0 22 14">
    <g fill="#DD4B39" fill-rule="nonzero">
        <path d="M7.672 8.446h3.416a4.346 4.346 0 0 1-4.125 2.891c-2.307-.017-4.215-1.859-4.304-4.16A4.34 4.34 0 0 1 9.909 3.8c.183.165.46.166.64-.003l1.255-1.178a.467.467 0 0 0 .001-.68A6.977 6.977 0 0 0 7.135.025C3.278-.049.027 3.106 0 6.956c-.027 3.879 3.115 7.031 6.996 7.031 3.731 0 6.78-2.916 6.983-6.588.006-.047.01-1.603.01-1.603H7.671a.468.468 0 0 0-.469.468v1.714c0 .259.21.468.469.468zM19.777 5.952V4.277a.41.41 0 0 0-.41-.41h-1.413a.41.41 0 0 0-.411.41v1.675h-1.678a.41.41 0 0 0-.411.41v1.41c0 .226.184.41.41.41h1.679v1.674c0 .227.184.41.41.41h1.413a.41.41 0 0 0 .411-.41V8.182h1.678a.41.41 0 0 0 .411-.41v-1.41a.41.41 0 0 0-.41-.41h-1.679z"/>
    </g>
</svg>
