<svg xmlns="http://www.w3.org/2000/svg" width="60" height="60" viewBox="0 0 60 60">
    <g fill="none" fill-rule="nonzero">
        <path fill="#E24B4B" d="M58.682 2.604l-3.38 9.839a1.967 1.967 0 0 1-1.859 1.325H6.557c-.84 0-1.586-.532-1.858-1.325l-3.38-9.839A1.964 1.964 0 0 1 3.175 0h53.648a1.964 1.964 0 0 1 1.858 2.604z"/>
        <path fill="#E9EFF4" d="M8.291 13.77h43.425v40.605H8.291z"/>
        <path fill="#3E4347" d="M38.269 39.34v17.266c0 .657-.506 1.163-1.163 1.163H22.894a1.145 1.145 0 0 1-1.163-1.163V39.34c0-.656.506-1.162 1.163-1.162h14.212c.657 0 1.163.506 1.163 1.162z"/>
        <g fill="#FFF">
            <path d="M16.223 9.887V3.883h1.213v2.363h2.375V3.883h1.212v6.004H19.81V7.262h-2.375v2.625h-1.213zM22.031 6.92c0-.61.092-1.124.274-1.539.137-.305.323-.58.559-.823.236-.244.495-.424.776-.54.375-.16.806-.238 1.294-.238.885 0 1.592.274 2.122.823.53.55.797 1.313.797 2.29 0 .969-.264 1.726-.791 2.274-.527.547-1.232.821-2.113.821-.893 0-1.603-.272-2.13-.817-.525-.544-.788-1.294-.788-2.25zm1.249-.039c0 .68.157 1.195.47 1.547.314.35.713.527 1.197.527.484 0 .88-.174 1.19-.521.31-.349.465-.87.465-1.568 0-.688-.151-1.202-.451-1.54-.302-.338-.704-.507-1.202-.507-.499 0-.902.17-1.208.514-.31.34-.461.856-.461 1.548zM30.152 9.887V4.899H28.37V3.883h4.771V4.9h-1.777v4.988h-1.213zM33.922 9.887V3.883h4.452V4.9h-3.24v1.332h3.015v1.01h-3.015v1.635h3.354v1.01h-4.566zM39.551 9.887V3.932h1.213v4.942h3.013v1.011h-4.226v.002z"/>
        </g>
        <g fill="#65B1EF">
            <path d="M19.114 17.7v4.622c0 .65-.51 1.16-1.16 1.16h-4.64c-.65 0-1.16-.51-1.16-1.16V17.7c0-.65.51-1.16 1.16-1.16h4.64a1.15 1.15 0 0 1 1.16 1.16zM28.691 17.7v4.622c0 .65-.51 1.16-1.16 1.16H22.89c-.65 0-1.16-.51-1.16-1.16V17.7c0-.65.51-1.16 1.16-1.16h4.64a1.15 1.15 0 0 1 1.161 1.16zM38.269 17.7v4.622c0 .65-.51 1.16-1.16 1.16h-4.642c-.65 0-1.16-.51-1.16-1.16V17.7c0-.65.51-1.16 1.16-1.16h4.641a1.15 1.15 0 0 1 1.16 1.16zM47.846 17.7v4.622c0 .65-.51 1.16-1.16 1.16h-4.641c-.65 0-1.16-.51-1.16-1.16V17.7c0-.65.51-1.16 1.16-1.16h4.64a1.15 1.15 0 0 1 1.161 1.16zM19.114 27.075v4.622c0 .65-.51 1.16-1.16 1.16h-4.64c-.65 0-1.16-.51-1.16-1.16v-4.622c0-.65.51-1.16 1.16-1.16h4.64c.65 0 1.16.51 1.16 1.16zM28.691 27.075v4.622c0 .65-.51 1.16-1.16 1.16H22.89c-.65 0-1.16-.51-1.16-1.16v-4.622c0-.65.51-1.16 1.16-1.16h4.64c.651 0 1.161.51 1.161 1.16zM38.269 27.075v4.622c0 .65-.51 1.16-1.16 1.16h-4.642c-.65 0-1.16-.51-1.16-1.16v-4.622c0-.65.51-1.16 1.16-1.16h4.641c.65 0 1.16.51 1.16 1.16zM47.846 27.075v4.622c0 .65-.51 1.16-1.16 1.16h-4.641c-.65 0-1.16-.51-1.16-1.16v-4.622c0-.65.51-1.16 1.16-1.16h4.64c.651 0 1.161.51 1.161 1.16zM19.114 36.448v4.622c0 .65-.51 1.16-1.16 1.16h-4.64c-.65 0-1.16-.51-1.16-1.16v-4.622c0-.65.51-1.16 1.16-1.16h4.64c.65 0 1.16.51 1.16 1.16zM47.846 36.448v4.622c0 .65-.51 1.16-1.16 1.16h-4.641c-.65 0-1.16-.51-1.16-1.16v-4.622c0-.65.51-1.16 1.16-1.16h4.64c.651 0 1.161.51 1.161 1.16zM19.114 45.821v4.622c0 .65-.51 1.16-1.16 1.16h-4.64c-.65 0-1.16-.51-1.16-1.16v-4.622c0-.65.51-1.16 1.16-1.16h4.64c.65 0 1.16.51 1.16 1.16zM47.846 45.821v4.622c0 .65-.51 1.16-1.16 1.16h-4.641c-.65 0-1.16-.51-1.16-1.16v-4.622c0-.65.51-1.16 1.16-1.16h4.64c.651 0 1.161.51 1.161 1.16z"/>
        </g>
        <path fill="#8CC63E" d="M60 57.188A2.814 2.814 0 0 1 57.187 60H2.813a2.814 2.814 0 0 1 0-5.625h54.374A2.814 2.814 0 0 1 60 57.188z"/>
    </g>
</svg>
