<svg xmlns="http://www.w3.org/2000/svg" width="54" height="54" viewBox="0 0 54 54">
    <g fill="#19BDAC" fill-rule="evenodd">
        <circle cx="27" cy="27" r="27" opacity=".15"/>
        <path fill-rule="nonzero" d="M27.372 17c-4.013 0-7.267 3.226-7.267 7.204 0 3.61 4.528 8.359 6.436 10.2.468.45 1.207.459 1.683.018 1.92-1.774 6.416-6.343 6.416-10.218 0-3.978-3.254-7.204-7.268-7.204zm0 9.545c-1.659 0-3.003-1.333-3.003-2.977 0-1.645 1.344-2.978 3.003-2.978 1.66 0 3.004 1.333 3.004 2.978 0 1.645-1.344 2.977-3.004 2.977z"/>
    </g>
</svg>
