<svg xmlns="http://www.w3.org/2000/svg" width="9" height="11" viewBox="0 0 9 11">
    <path fill="#FFF" fill-rule="nonzero" d="M7.653 4.44h-.208V3.437C7.445 1.583 6.01.034 4.22.001h-.196C2.233.034.8 1.583.8 3.437V4.44H.591c-.322 0-.584.34-.584.761v5.029c0 .42.262.764.584.764h7.062c.322 0 .584-.344.584-.764V5.2c0-.42-.262-.761-.584-.761zm-2.87 3.27v1.52a.32.32 0 0 1-.31.321h-.701a.32.32 0 0 1-.312-.321V7.71a.917.917 0 0 1-.26-.65c0-.482.363-.896.824-.915a3.14 3.14 0 0 1 .196 0c.461.02.824.433.824.915a.917.917 0 0 1-.26.65zM6.07 4.44H2.174V3.437c0-1.104.875-2.018 1.948-2.018s1.948.914 1.948 2.018V4.44z"/>
</svg>
