<svg xmlns="http://www.w3.org/2000/svg" width="60" height="60" viewBox="0 0 60 60">
    <g fill="none" fill-rule="nonzero">
        <path fill="#E9EFF4" d="M50.959 35.943l8.737 20.383c.825 1.925-1.153 3.557-4.414 3.557H4.628c-3.288 0-5.266-1.632-4.44-3.557l8.737-20.383c.393-.917 2.438-1.632 4.573-1.632H46.4c2.12 0 4.166.715 4.559 1.632z"/>
        <path fill="#8CC63E" d="M6.333 56.08l6.832-20.013h33.553l6.83 20.014z"/>
        <path fill="#3E4347" d="M42.822 42.193l5.06-2.715-.586-1.716-7.79 4.02-16.835-2.053.504-3.662H20.6l-.79 4.154c-.056.292.328.554.938.623L37.3 42.92l-5.285 2.726H9.894l-.547 1.602h10.56l-1.469 8.83h3.625l1.005-8.83h8.81l11.444 8.83h4.33l-12.963-9.534 5.974-3.205 8.917 1.12-.513-1.504-6.245-.762z"/>
        <g fill="#A5856D">
            <path d="M37.298 42.921l-16.552-2.075c-.608-.071-.992-.331-.938-.623l.79-4.154h-7.433l-3.27 9.58h22.12l5.283-2.728zM34.691 46.544l12.963 9.537h5.895l-3.966-11.62-8.917-1.12z"/>
        </g>
        <path fill="#E24B4B" d="M29.942 0C21.128 0 13.979 7.15 13.979 15.963c0 8.833 15.963 28.126 15.963 28.126s15.962-19.293 15.962-28.126C45.904 7.149 38.756 0 29.942 0zm0 22.267c-3.481 0-6.305-2.823-6.305-6.287 0-3.481 2.824-6.322 6.305-6.322 3.48 0 6.304 2.84 6.304 6.322 0 3.464-2.824 6.287-6.304 6.287z"/>
        <path fill="#E24B4B" d="M29.942 0C21.128 0 13.979 7.15 13.979 15.963c0 8.833 15.963 28.126 15.963 28.126s15.962-19.293 15.962-28.126C45.904 7.149 38.756 0 29.942 0zm0 22.267c-3.481 0-6.305-2.823-6.305-6.287 0-3.481 2.824-6.322 6.305-6.322 3.48 0 6.304 2.84 6.304 6.322 0 3.464-2.824 6.287-6.304 6.287z"/>
        <path fill="#FFD93B" d="M38.123 15.978a8.187 8.187 0 0 0-8.185-8.185c-4.52 0-8.167 3.665-8.167 8.185 0 4.498 3.648 8.166 8.167 8.166 4.52 0 8.185-3.668 8.185-8.166zm-8.18 4.37a4.382 4.382 0 0 1-4.384-4.374 4.394 4.394 0 0 1 4.385-4.396c2.42 0 4.384 1.976 4.384 4.396a4.385 4.385 0 0 1-4.384 4.373z"/>
        <path fill="#D03F3F" d="M38.625 2.583a21.757 21.757 0 0 1 1.665 8.383c0 10.573-7.541 19.537-18.058 22.793a159.57 159.57 0 0 0 7.71 10.33s15.962-19.293 15.962-28.126a15.9 15.9 0 0 0-7.28-13.38z"/>
        <path fill="#FFF" d="M30.829 4.697c-.367.94-3.376.812-6.004 2.336-2.724 1.34-4.302 3.918-5.28 3.7-1.043-.083-.725-4.658 3.555-6.964 4.295-2.281 8.243.011 7.729.928z" opacity=".1"/>
        <path fill="#FFF" d="M29.942 20.342c-2.414 0-4.38-1.965-4.38-4.36 0-2.433 1.966-4.398 4.38-4.398 1.987 0 3.649 1.34 4.184 3.166a24.233 24.233 0 0 0 1.789-9.136c0-1.577-.163-3.117-.45-4.613a15.918 15.918 0 0 0-5.523-1c-8.814 0-15.963 7.148-15.963 15.962 0 3.318 2.253 8.112 5.066 12.804 4.841-1.56 9.003-4.6 11.99-8.58a4.305 4.305 0 0 1-1.093.155z" opacity=".15"/>
    </g>
</svg>
