<svg xmlns="http://www.w3.org/2000/svg" width="9" height="12" viewBox="0 0 9 12">
    <path fill="#B3C1CB" fill-rule="nonzero" d="M8.765 2.98c-.047-.16-.14-.33-.21-.478C7.724.66 5.908 0 4.441 0 2.478 0 .316 1.214.027 3.715v.51c0 .022.008.214.02.31.161 1.192 1.182 2.459 1.944 3.65.82 1.278 1.67 2.534 2.513 3.79.52-.82 1.038-1.65 1.546-2.448.138-.234.299-.468.437-.692.093-.149.27-.298.35-.436.82-1.384 2.14-2.779 2.14-4.152v-.564c0-.149-.201-.67-.212-.702zM4.477 5.547c-.577 0-1.208-.266-1.52-1-.047-.118-.043-.352-.043-.373v-.33c0-.937.863-1.363 1.613-1.363.924 0 1.638.682 1.638 1.533 0 .852-.764 1.533-1.688 1.533z" opacity=".6"/>
</svg>
