<svg xmlns="http://www.w3.org/2000/svg" width="60" height="62" viewBox="0 0 60 62">
    <g fill="none" fill-rule="evenodd">
        <path fill="#805333" fill-rule="nonzero" d="M30.884 18.88c-.12.009-.236.035-.358.035a4.176 4.176 0 0 1-2.652-.963c.335.599.547 1.276.547 2.014 0 .63-.148 1.223-.398 1.76 2.185 11.664 4.95 32.577-1.707 39.223h14.737s-.41-27.412-10.169-42.07z"/>
        <path stroke="#A4E869" stroke-linejoin="round" stroke-width="2.102" d="M0 60.95h60"/>
        <ellipse cx="15.789" cy="56.746" fill="#7F6E5D" fill-rule="nonzero" rx="4.211" ry="4.203"/>
        <ellipse cx="30.526" cy="14.712" fill="#CBB292" fill-rule="nonzero" rx="4.211" ry="4.203"/>
        <path fill="#4FBA6F" fill-rule="nonzero" d="M37.743 5.973c-3.67.982-6.688 2.837-8.566 4.776.426-.145.875-.24 1.35-.24a4.194 4.194 0 0 1 3.97 2.86l3.356-.898.98-2.438 2.07 1.623L51.58 8.8c-.753-2.803-7.097-4.63-13.836-2.827z"/>
        <path fill="#4C8056" fill-rule="nonzero" d="M27.961 11.4c-.905-2.732-3.588-6.124-7.568-8.53C14.424-.734 7.82-.745 6.316 1.737l9.456 5.713 2.44-.981.262 2.614 7.927 4.79a4.184 4.184 0 0 1 1.56-2.471z"/>
        <path fill="#4FBA6F" fill-rule="nonzero" d="M26.316 14.712c0-.347.053-.679.133-1.002-2.125-1.944-7.385-2.911-12.916-1.43-6.74 1.801-11.32 6.55-10.567 9.353l10.676-2.856.98-2.438 2.07 1.622 4.987-1.333a4.17 4.17 0 0 1 2.532-.865c.173 0 .338.03.507.051l1.664-.445a4.22 4.22 0 0 1-.066-.657z"/>
        <path fill="#7F6E5D" fill-rule="nonzero" d="M26.843 16.71a4.168 4.168 0 0 0-2.632-.947A4.207 4.207 0 0 0 20 19.966a4.207 4.207 0 0 0 4.21 4.203 4.207 4.207 0 0 0 4.211-4.203 4.16 4.16 0 0 0-.527-1.999 4.19 4.19 0 0 1-1.05-1.256z"/>
        <path stroke="#A4E869" stroke-linecap="round" stroke-linejoin="round" stroke-width="2.102" d="M44.21 60.95v-5.255M47.368 60.95v-3.153M50.526 60.95v-5.255M24.21 59.898v-3.152"/>
        <g fill="#CB8252" fill-rule="nonzero">
            <path d="M36.554 31.525h-6.98c.088.694.171 1.395.25 2.102h7.34a77.219 77.219 0 0 0-.61-2.102zM33.787 24.17a43.73 43.73 0 0 0-1.028-2.102h-4.674c.126.673.252 1.373.378 2.101h5.324z"/>
        </g>
        <g fill="#CB8252" fill-rule="nonzero">
            <path d="M40.29 50.44H30.197a35.78 35.78 0 0 1-.289 2.102h10.605c-.066-.672-.14-1.374-.221-2.101zM30.482 43.085h8.765a107.67 107.67 0 0 0-.382-2.102h-8.451c.03.704.054 1.406.068 2.102z"/>
        </g>
    </g>
</svg>
