<svg xmlns="http://www.w3.org/2000/svg" width="12" height="12" viewBox="0 0 12 12">
    <path fill="#FFF" fill-rule="nonzero" d="M11.976 9.47a.58.58 0 0 1-.178.508l-1.687 1.677a.95.95 0 0 1-.298.216 1.23 1.23 0 0 1-.361.114l-.076.007a1.724 1.724 0 0 1-.165.006c-.161 0-.421-.027-.78-.082-.36-.055-.8-.191-1.32-.407-.52-.216-1.11-.54-1.769-.972-.66-.432-1.361-1.025-2.105-1.779a13.916 13.916 0 0 1-1.472-1.677 11.953 11.953 0 0 1-.938-1.48 7.98 7.98 0 0 1-.533-1.233 6.548 6.548 0 0 1-.241-.953 3.152 3.152 0 0 1-.05-.629l.012-.254c.017-.118.055-.239.114-.362a.952.952 0 0 1 .216-.298L2.032.182a.558.558 0 0 1 .405-.178c.11 0 .208.032.292.095a.883.883 0 0 1 .216.235l1.357 2.58a.62.62 0 0 1 .063.444.792.792 0 0 1-.215.407l-.622.622a.212.212 0 0 0-.044.083.314.314 0 0 0-.02.095c.035.178.11.381.23.61a5.6 5.6 0 0 0 .468.743c.212.293.512.63.901 1.01.38.39.719.693 1.015.91.296.215.543.374.742.476.198.101.35.163.456.184l.159.032a.302.302 0 0 0 .082-.02.212.212 0 0 0 .083-.044l.723-.737a.776.776 0 0 1 .533-.203c.143 0 .257.025.342.076h.013l2.448 1.448c.177.11.283.25.317.42z"/>
</svg>
