<svg xmlns="http://www.w3.org/2000/svg" width="60" height="56" viewBox="0 0 60 56">
    <g fill="none" fill-rule="nonzero">
        <path fill="#596675" d="M51.655 19.609h-4.932v-5.795c0-4.15-3.363-7.527-7.497-7.527H20.774c-4.134 0-7.497 3.377-7.497 7.527v5.795H8.345v-5.795c0-6.88 5.576-12.478 12.43-12.478h18.45c6.854 0 12.43 5.598 12.43 12.478v5.795z"/>
        <path fill="#000" d="M8.345 16.858h4.932v2.751H8.345zM46.724 16.858h4.932v2.751h-4.932z" opacity=".1"/>
        <path fill="#C27C59" d="M55.634 27.875H4.366v7.295c0 11.451 9.247 20.734 20.654 20.734h9.96c11.407 0 20.654-9.283 20.654-20.734v-7.295z"/>
        <path fill="#000" d="M55.634 27.875H4.366v7.295c0 11.451 9.247 20.734 20.654 20.734h9.96c11.407 0 20.654-9.283 20.654-20.734v-7.295z" opacity=".1"/>
        <path fill="#000" d="M55.634 27.875H4.366v7.295c0 11.451 9.247 20.734 20.654 20.734h.45c-7.57-4.064-11.534-16.543-12.134-21.15h42.298v-6.88z" opacity=".1"/>
        <path fill="#000" d="M55.634 29.383l-13.337 13.39-11.054-11.097 2.21-2.219a.885.885 0 0 0 0-1.248.877.877 0 0 0-1.243 0L30 30.43l-2.21-2.22a.877.877 0 0 0-1.243 0 .885.885 0 0 0 0 1.248l2.21 2.219-11.053 11.097-13.338-13.39v2.496l12.095 12.142-5.915 5.938c.418.413.853.808 1.306 1.185l5.851-5.875 10.595 10.635h3.404L42.296 45.27l5.852 5.874c.453-.376.888-.771 1.306-1.184L43.54 44.02l12.095-12.142v-2.496zM30 55.118L18.946 44.02 30 32.924 41.054 44.02 30 55.118z" opacity=".1"/>
        <path fill="#C27C59" d="M56.415 31.265H3.585A3.592 3.592 0 0 1 0 27.666v-4.459a3.592 3.592 0 0 1 3.585-3.598h52.83A3.592 3.592 0 0 1 60 23.207v4.459a3.592 3.592 0 0 1-3.585 3.599z"/>
        <path fill="#FF6E6E" d="M11.25 19.609L28.34 36.764c.917.92 2.405.92 3.322 0l17.088-17.155H11.25z"/>
        <path fill="#FFF" d="M30 19.609l-9.375 9.411 7.714 7.744c.917.92 2.405.92 3.322 0l7.714-7.744L30 19.61z"/>
        <path fill="#FFB655" d="M36.975.096h-13.95a1.13 1.13 0 0 0-1.128 1.132v5.167a1.13 1.13 0 0 0 1.128 1.132h13.95a1.13 1.13 0 0 0 1.128-1.132V1.228A1.13 1.13 0 0 0 36.975.096z"/>
        <path fill="#000" d="M28.111.096h-5.086a1.13 1.13 0 0 0-1.128 1.132v5.167a1.13 1.13 0 0 0 1.128 1.132h6.62c-2.56-1.55-2.371-5.71-1.534-7.431z" opacity=".1"/>
    </g>
</svg>
