<svg xmlns="http://www.w3.org/2000/svg" width="45" height="46" viewBox="0 0 45 46">
    <g fill="none" fill-rule="evenodd">
        <rect width="45" height="46" fill="#CB2027" rx="3.6"/>
        <g fill-rule="nonzero" transform="translate(9.9 10.824)">
            <ellipse cx="12.511" cy="12.538" fill="#CB2027" rx="12.51" ry="12.538"/>
            <path fill="#F1F2F2" d="M13.52 16.79c-.945-.074-1.343-.544-2.085-.995-.407 2.143-.905 4.198-2.381 5.272-.456-3.24.669-5.674 1.19-8.257-.89-1.501.108-4.524 1.986-3.78 2.31.916-2.001 5.585.893 6.168 3.022.609 4.256-5.255 2.382-7.162-2.708-2.754-7.882-.063-7.246 3.88.155.963 1.15 1.255.397 2.585-1.733-.384-2.25-1.754-2.183-3.58.107-2.99 2.68-5.083 5.26-5.372 3.264-.366 6.328 1.2 6.75 4.277.476 3.473-1.473 7.233-4.963 6.963z"/>
        </g>
    </g>
</svg>
