<svg xmlns="http://www.w3.org/2000/svg" width="45" height="46" viewBox="0 0 45 46">
    <g fill="none" fill-rule="evenodd">
        <rect width="45" height="46" fill="#DC4E41" rx="3.6"/>
        <g fill-rule="nonzero" transform="translate(9.9 10.824)">
            <ellipse cx="12.51" cy="12.649" fill="#DC4E41" rx="12.51" ry="12.428"/>
            <path fill="#DC4E41" d="M4.356 13.205c-.045 2.138 1.438 4.179 3.477 4.845 1.921.64 4.283.161 5.561-1.473.934-1.145 1.146-2.672 1.045-4.098-1.645-.015-3.29-.01-4.933-.008-.003.583 0 1.163.002 1.745.985.027 1.97.014 2.956.034-.25.847-.816 1.634-1.675 1.94-1.66.727-3.778-.222-4.3-1.952-.63-1.657.401-3.656 2.105-4.137 1.057-.37 2.145.046 3.05.592.458-.426.886-.881 1.307-1.34-1.027-.855-2.347-1.378-3.704-1.263-2.662.031-4.992 2.473-4.891 5.115zM17.64 11.003c-.004.487-.01.976-.012 1.463a298.7 298.7 0 0 1-1.473.01v1.458c.49.002.983.005 1.473.01.005.487.005.974.01 1.463.487 0 .978-.002 1.468 0 .002-.49.005-.976.01-1.465l1.472-.008v-1.458c-.49-.002-.982-.005-1.472-.01-.003-.487-.008-.976-.01-1.463H17.64z"/>
            <g fill="#FFF">
                <path d="M4.356 13.205c-.101-2.642 2.228-5.084 4.89-5.115 1.358-.115 2.678.408 3.705 1.262-.421.46-.85.915-1.308 1.34-.904-.545-1.992-.96-3.049-.592-1.704.482-2.736 2.481-2.106 4.138.523 1.73 2.64 2.679 4.3 1.952.86-.306 1.427-1.094 1.675-1.94-.985-.02-1.97-.007-2.955-.034-.002-.583-.005-1.163-.002-1.745 1.642-.002 3.287-.007 4.932.008.102 1.426-.11 2.953-1.044 4.098-1.278 1.634-3.64 2.113-5.561 1.472-2.039-.665-3.522-2.706-3.477-4.844zM17.64 11.003h1.466c.002.487.007.976.01 1.463.49.005.982.007 1.472.01v1.458l-1.472.007c-.005.49-.008.976-.01 1.466-.49-.003-.98 0-1.468 0-.005-.49-.005-.976-.01-1.463-.49-.005-.983-.008-1.473-.01v-1.458c.49-.003.98-.005 1.473-.01.002-.487.007-.976.012-1.463z"/>
            </g>
        </g>
    </g>
</svg>
