<svg xmlns="http://www.w3.org/2000/svg" width="45" height="46" viewBox="0 0 45 46">
    <g fill="none" fill-rule="evenodd">
        <rect width="45" height="46" fill="#55ACEE" rx="3.6"/>
        <g fill-rule="nonzero" transform="translate(9.9 10.824)">
            <ellipse cx="12.511" cy="12.538" fill="#55ACEE" rx="12.51" ry="12.538"/>
            <path fill="#F1F2F2" d="M20.174 9.01c-.537.239-1.113.4-1.718.472a3.004 3.004 0 0 0 1.315-1.658 5.978 5.978 0 0 1-1.899.727 2.984 2.984 0 0 0-2.183-.946 2.994 2.994 0 0 0-2.913 3.68 8.482 8.482 0 0 1-6.163-3.132 2.998 2.998 0 0 0 .925 4.001 2.964 2.964 0 0 1-1.354-.375v.038a2.997 2.997 0 0 0 2.398 2.939 2.974 2.974 0 0 1-1.35.051 2.994 2.994 0 0 0 2.793 2.082 5.992 5.992 0 0 1-4.427 1.24 8.445 8.445 0 0 0 4.584 1.347c5.5 0 8.508-4.566 8.508-8.527 0-.13-.003-.26-.009-.388a6.071 6.071 0 0 0 1.493-1.55z"/>
        </g>
    </g>
</svg>
