<svg xmlns="http://www.w3.org/2000/svg" width="45" height="46" viewBox="0 0 45 46">
    <g fill="none" fill-rule="evenodd">
        <rect width="45" height="46" fill="#6A453B" rx="3.6"/>
        <g fill-rule="nonzero">
            <path fill="#F1F2F2" d="M26.211 17.524h-7.49a2.173 2.173 0 0 0-2.168 2.174v7.506c0 1.199.972 2.174 2.168 2.174h7.49a2.173 2.173 0 0 0 2.169-2.174v-7.506a2.173 2.173 0 0 0-2.169-2.174zm-3.745 9.83a3.902 3.902 0 0 1 0-7.805 3.902 3.902 0 0 1 0 7.804zm4.019-6.998a.923.923 0 0 1 0-1.847.923.923 0 0 1 0 1.847z"/>
            <path fill="#F1F2F2" d="M22.466 21.198a2.254 2.254 0 0 0 0 4.506 2.253 2.253 0 0 0 0-4.506z"/>
            <path fill="#6A453B" d="M22.466 10.824c-6.94 0-12.566 5.638-12.566 12.593s5.626 12.594 12.566 12.594 12.566-5.64 12.566-12.594c0-6.955-5.626-12.593-12.566-12.593zm7.559 16.38a3.822 3.822 0 0 1-3.814 3.822h-7.49a3.822 3.822 0 0 1-3.814-3.822v-7.506a3.822 3.822 0 0 1 3.814-3.822h7.49a3.822 3.822 0 0 1 3.814 3.822v7.506z"/>
        </g>
    </g>
</svg>
