<svg xmlns="http://www.w3.org/2000/svg" width="27" height="20" viewBox="0 0 27 20">
    <g fill="#98A4AE" fill-rule="nonzero">
        <path d="M26.386 0H.614C.274 0 0 .28 0 .625v18.75c0 .346.274.625.614.625h25.772a.62.62 0 0 0 .614-.625V.625A.62.62 0 0 0 26.386 0zm-.613 17.238L18.17 9.496l-.868.884 8.218 8.37H1.48l8.218-8.37-.868-.884-7.602 7.742V1.25h24.546v15.988z"/>
        <path d="M24.533 1.25L13.5 12.487 2.467 1.25h-1.24v.504l11.84 12.059c.24.244.627.244.867 0L25.773 1.754V1.25h-1.24z"/>
    </g>
</svg>
