<svg xmlns="http://www.w3.org/2000/svg" width="60" height="60" viewBox="0 0 60 60">
    <g fill="none" fill-rule="nonzero">
        <path fill="#5A5F63" d="M38.75 53.88l-1.775.675L19.809 9.438l1.775-.675z"/>
        <path fill="#D03F3F" d="M14.242 28.069c.737 4.727-12.42 5.749-13.621.926l13.621-.926z"/>
        <path fill="#BBC7D1" d="M26.63 24.718c1.388 5.042-10.565 8.306-12.386 3.35l12.387-3.35z"/>
        <path fill="#D03F3F" d="M26.63 24.718l11.481-5.73c1.94 4.939-9.155 10.444-11.48 5.73z"/>
        <path fill="#BBC7D1" d="M38.111 18.988l10.78-8.357c2.687 5.087-7.791 13.017-10.78 8.357z"/>
        <path fill="#E24B4B" d="M17.222 0C14.522 11.498 9.439 22.492.628 28.995c4.73.116 9.274-.203 13.61-.926 2.748-7.393 3.37-17.745 2.984-28.069z"/>
        <path fill="#DEE4E9" d="M17.222 0c.386 10.324-.236 20.676-2.981 28.069a64.782 64.782 0 0 0 12.392-3.345C24.18 18.287 20.701 9.146 17.221 0z"/>
        <path fill="#E24B4B" d="M17.222 0l9.409 24.724a64.924 64.924 0 0 0 11.48-5.738C31.146 15.29 23.798 7.97 17.221 0z"/>
        <path fill="#DEE4E9" d="M17.222 0c6.575 7.969 13.924 15.289 20.89 18.986 3.721-2.342 7.327-5.122 10.784-8.353C37.99 11.63 26.884 6.795 17.222 0z"/>
        <path fill="#65B1EF" d="M42.52 44.947L50.17 30.82a1.124 1.124 0 0 0-1.53.443c-1.907-1.052-8.883 11.587-6.978 12.641-.317-3.154-34.144.253-33.827 3.407a1.125 1.125 0 0 0-1.007 1.234l35.69-3.596z"/>
        <path fill="#89664C" d="M42.47 46.022L8.058 49.487a1.063 1.063 0 1 1-.212-2.117l33.859-3.409 6.995-12.67a1.063 1.063 0 1 1 1.862 1.028l-7.264 13.157c-.172.308-.48.512-.826.546z"/>
        <path fill="#DEE4E9" d="M9.733 54.887a.748.748 0 0 1-.328-1.009c3.324-6.529 9.347-11.196 16.112-12.482 6.467-1.23 12.952.683 18.27 5.383.172.15.43.154.57.013a3.85 3.85 0 0 1 .354-.307c.74-.566 1.708-.677 2.582-.296a2.785 2.785 0 0 1 1.67 2.269 2.585 2.585 0 0 1-2.311 2.829c-.866.088-1.63-.227-2.209-.906a.75.75 0 1 1 1.142-.971c.259.304.54.424.915.384a1.083 1.083 0 0 0 .968-1.185c-.055-.545-.437-.896-.775-1.042-.178-.077-.641-.22-1.072.11a2.46 2.46 0 0 0-.216.186c-.709.696-1.856.713-2.617.04-4.962-4.388-11.005-6.171-16.995-5.035-6.314 1.2-11.94 5.569-15.055 11.689a.743.743 0 0 1-1.005.33z"/>
        <path fill="#FFD93B" d="M60 60v-9.131c-24.85.11-46.704 2.402-60 5.857V60h60z"/>
    </g>
</svg>
