<svg xmlns="http://www.w3.org/2000/svg" width="14" height="14" viewBox="0 0 14 14">
    <path fill="#8C8C8C" fill-rule="nonzero" stroke="#979797" stroke-width=".5" d="M3.448 8.97a12.743 12.743 0 0 0 4.24 3.314c.62.294 1.45.641 2.373.701.057.003.112.005.169.005.62 0 1.118-.214 1.524-.653a.054.054 0 0 0 .01-.013c.144-.174.308-.33.48-.497.117-.111.237-.228.351-.347.53-.552.53-1.253-.005-1.787L11.094 8.2c-.254-.263-.558-.402-.876-.402-.32 0-.625.139-.887.4l-.891.889c-.082-.047-.167-.09-.246-.13a3.08 3.08 0 0 1-.274-.148C7.108 8.294 6.37 7.624 5.667 6.76c-.356-.45-.595-.827-.762-1.212.234-.211.453-.432.664-.648.075-.077.152-.154.23-.231.268-.269.413-.58.413-.895 0-.315-.142-.626-.414-.894l-.741-.74c-.088-.088-.17-.172-.254-.259a13.642 13.642 0 0 0-.506-.5C4.041 1.133 3.74 1 3.421 1c-.316 0-.62.132-.886.385l-.932.93c-.338.337-.53.747-.57 1.222-.047.593.063 1.224.346 1.987.436 1.18 1.093 2.276 2.07 3.446zM1.641 3.59c.03-.33.157-.606.396-.845l.926-.924c.144-.14.304-.211.458-.211.152 0 .306.072.448.216.167.154.324.315.493.487l.259.263.742.74c.154.155.234.311.234.465 0 .154-.08.31-.234.465l-.232.233c-.231.234-.448.455-.687.666l-.012.013c-.207.206-.175.402-.125.551l.008.02c.191.46.458.897.874 1.419.746.919 1.533 1.632 2.4 2.181.107.07.221.124.328.179.1.05.192.097.274.149l.027.015a.521.521 0 0 0 .242.062c.2 0 .329-.127.37-.169l.932-.93c.144-.143.301-.22.456-.22.189 0 .343.116.44.22l1.501 1.496c.3.299.297.622-.007.937a8.295 8.295 0 0 1-.331.33c-.174.17-.356.343-.52.54-.287.308-.628.452-1.068.452-.043 0-.088-.003-.13-.005-.817-.052-1.576-.37-2.146-.641a12.106 12.106 0 0 1-4.036-3.155C2.993 7.472 2.368 6.434 1.954 5.32c-.256-.683-.353-1.232-.313-1.731z" opacity=".7"/>
</svg>
