<svg xmlns="http://www.w3.org/2000/svg" width="18" height="14" viewBox="0 0 18 14">
    <path fill="#00ACEE" fill-rule="nonzero" d="M17.284 1.645c-.39.165-.795.296-1.21.39.457-.416.802-.936.996-1.517.056-.166-.133-.31-.29-.22a7.17 7.17 0 0 1-1.85.73.504.504 0 0 1-.44-.105 3.889 3.889 0 0 0-2.506-.903c-.4 0-.804.06-1.2.177C9.556.561 8.61 1.53 8.312 2.724a3.696 3.696 0 0 0-.09 1.333.126.126 0 0 1-.034.101.143.143 0 0 1-.118.045C5.382 3.964 2.959 2.726 1.246.718A.203.203 0 0 0 .92.742a3.495 3.495 0 0 0-.513 1.82c0 .981.413 1.906 1.13 2.58a3.489 3.489 0 0 1-.864-.32c-.132-.07-.293.02-.295.163-.018 1.458.874 2.755 2.212 3.34a3.546 3.546 0 0 1-.719-.058c-.147-.027-.271.107-.226.244.435 1.296 1.602 2.25 2.998 2.467a7.218 7.218 0 0 1-3.913 1.137H.293a.288.288 0 0 0-.284.208.282.282 0 0 0 .144.317 10.763 10.763 0 0 0 5.222 1.346c1.605 0 3.107-.304 4.463-.905a9.831 9.831 0 0 0 3.266-2.339c.86-.933 1.533-2.01 1.999-3.201a9.719 9.719 0 0 0 .68-3.504v-.055c0-.186.087-.36.24-.48a7.283 7.283 0 0 0 1.506-1.579c.11-.158-.063-.355-.245-.278z"/>
</svg>
