<svg xmlns="http://www.w3.org/2000/svg" width="28" height="22" viewBox="0 0 28 22">
    <g fill="#98A4AE" fill-rule="nonzero">
        <path d="M17.639 10.596l-5.31-3.347a.49.49 0 0 0-.493-.016.479.479 0 0 0-.25.42v6.695a.478.478 0 0 0 .483.478.49.49 0 0 0 .26-.075l5.31-3.347a.478.478 0 0 0 0-.808zm-5.087 2.88V8.524L16.48 11l-3.928 2.477z"/>
        <path d="M27.517 0H.483A.48.48 0 0 0 0 .478v21.044A.48.48 0 0 0 .483 22h27.034a.48.48 0 0 0 .483-.478V.478A.48.48 0 0 0 27.517 0zM4.827 10.522H.967V6.217h3.862v4.305zm-3.861.956h3.862v4.305H.966v-4.305zm4.827 4.783V.957h16.414v20.086H5.793v-4.782zm21.241-5.74h-3.862V6.218h3.862v4.305zm-3.862.957h3.862v4.305h-3.862v-4.305zM27.034.957V5.26h-3.862V.957h3.862zM.966.957h3.862V5.26H.966V.957zm0 20.086V16.74h3.862v4.304H.966zm26.068 0h-3.862V16.74h3.862v4.304z"/>
    </g>
</svg>
