<svg xmlns="http://www.w3.org/2000/svg" xmlns:xlink="http://www.w3.org/1999/xlink" width="23" height="28" viewBox="0 0 23 28">
    <defs>
        <path id="a" d="M3.394 0h16.212A3.394 3.394 0 0 1 23 3.394v16.97a3.394 3.394 0 0 1-3.394 3.394h-4.035c-.81 0-3.262 4.242-4.071 4.242-.826 0-3.295-4.242-4.121-4.242H3.394A3.394 3.394 0 0 1 0 20.364V3.394A3.394 3.394 0 0 1 3.394 0z"/>
    </defs>
    <g fill="none" fill-rule="evenodd">
        <g>
            <use fill="#4EB8FF" xlink:href="#a"/>
            <path stroke="#2E9DE8" stroke-width=".848" d="M3.394.424a2.97 2.97 0 0 0-2.97 2.97v16.97a2.97 2.97 0 0 0 2.97 2.97H7.379c.563 0 .96.437 2.395 2.285 1.037 1.334 1.601 1.957 1.726 1.957.116 0 .678-.628 1.7-1.956 1.425-1.854 1.813-2.287 2.371-2.287h4.035a2.97 2.97 0 0 0 2.97-2.97V3.394a2.97 2.97 0 0 0-2.97-2.969H3.394z"/>
        </g>
        <g fill="#FFF" fill-rule="nonzero">
            <path d="M16.569 16.492c-.268.266-.399.384-.705.384-.307 0-.438-.118-.706-.384-.297-.297-.704-.703-1.475-.703h-.001c-.772 0-1.18.406-1.477.703-.267.266-.398.384-.705.384-.307 0-.438-.118-.705-.384-.298-.297-.705-.703-1.475-.703h-.002c-.771 0-1.179.406-1.476.703-.268.266-.399.384-.705.384-.307 0-.438-.118-.706-.384a.547.547 0 0 0-.771 0 .543.543 0 0 0 0 .769c.297.296.705.703 1.476.703.772 0 1.18-.407 1.477-.703.267-.267.399-.385.705-.385.307 0 .438.118.705.385.298.296.706.703 1.477.703.771 0 1.18-.407 1.477-.703.267-.267.398-.385.704-.385h.001c.307 0 .438.118.705.385.298.297.705.703 1.476.703h.001c.771 0 1.179-.407 1.476-.703a.543.543 0 0 0 0-.77.547.547 0 0 0-.771 0zM16.955 7.088a.545.545 0 1 0 0-1.088h-2.18-8.73a.545.545 0 1 0 0 1.088h1.637v7.383c-.174.158-.306.23-.545.23-.307 0-.438-.118-.706-.385a.547.547 0 0 0-.771 0 .543.543 0 0 0 0 .77c.297.296.705.703 1.476.703.772 0 1.18-.407 1.477-.703.267-.267.399-.385.705-.385.307 0 .438.118.705.385.298.296.706.703 1.477.703.771 0 1.18-.407 1.477-.703.267-.267.398-.385.704-.385h.001c.307 0 .438.118.705.385.298.296.705.703 1.476.703h.001c.771 0 1.179-.407 1.476-.703a.543.543 0 0 0 0-.77.547.547 0 0 0-.771 0c-.268.267-.399.385-.705.385-.24 0-.372-.072-.546-.23V7.088h1.637zm-6 5.269a.545.545 0 0 1-1.091 0v-1.825a.545.545 0 0 1 1.09 0v1.825zm2.181-1.813a.545.545 0 0 1-1.09 0V8.719a.545.545 0 0 1 1.09 0v1.825z"/>
        </g>
    </g>
</svg>
