<svg xmlns="http://www.w3.org/2000/svg" width="12" height="12" viewBox="0 0 12 12">
    <g fill="#000" fill-rule="nonzero" opacity=".4">
        <path d="M5.949 0A5.955 5.955 0 0 0 0 5.949a5.955 5.955 0 0 0 5.949 5.948 5.955 5.955 0 0 0 5.948-5.948A5.955 5.955 0 0 0 5.95 0zm0 10.631A4.688 4.688 0 0 1 1.266 5.95c0-2.583 2.1-4.683 4.683-4.683 2.582 0 4.683 2.1 4.683 4.683 0 2.582-2.101 4.682-4.683 4.682z"/>
        <path d="M9.049 5.765H6.375V2.55a.49.49 0 0 0-.98 0v3.704c0 .27.22.49.49.49H9.05a.49.49 0 0 0 0-.98z"/>
    </g>
</svg>
