<svg xmlns="http://www.w3.org/2000/svg" xmlns:xlink="http://www.w3.org/1999/xlink" width="23" height="28" viewBox="0 0 23 28">
    <defs>
        <path id="a" d="M3.394 0h16.212A3.394 3.394 0 0 1 23 3.394v16.97a3.394 3.394 0 0 1-3.394 3.394h-4.035c-.81 0-3.262 4.242-4.071 4.242-.826 0-3.295-4.242-4.121-4.242H3.394A3.394 3.394 0 0 1 0 20.364V3.394A3.394 3.394 0 0 1 3.394 0z"/>
    </defs>
    <g fill="none" fill-rule="evenodd">
        <g>
            <use fill="#F943B0" xlink:href="#a"/>
            <path stroke="#F943B0" stroke-width=".848" d="M3.394.424a2.97 2.97 0 0 0-2.97 2.97v16.97a2.97 2.97 0 0 0 2.97 2.97H7.379c.563 0 .96.437 2.395 2.285 1.037 1.334 1.601 1.957 1.726 1.957.116 0 .678-.628 1.7-1.956 1.425-1.854 1.813-2.287 2.371-2.287h4.035a2.97 2.97 0 0 0 2.97-2.97V3.394a2.97 2.97 0 0 0-2.97-2.969H3.394z"/>
        </g>
        <g fill="#FFF" fill-rule="nonzero">
            <path d="M12.007 5.319a.591.591 0 0 0-.52-.306.591.591 0 0 0-.52.306L8.893 9.123l.014.01.448.369.462.38.214.175 1.253-.453a.6.6 0 0 1 .407 0l1.252.453.214-.175.462-.38.45-.368.013-.01-2.075-3.805zM17.89 16.108l-3.24-5.942-.462.38-.462.379-.288.236a.598.598 0 0 1-.582.1l-1.369-.496-1.369.495a.6.6 0 0 1-.582-.099l-.288-.236-.462-.38-.462-.38-3.254 5.969a.57.57 0 0 0 .014.571.592.592 0 0 0 .506.282h11.795c.326 0 .59-.26.59-.58a.57.57 0 0 0-.085-.3z"/>
        </g>
    </g>
</svg>
