<svg xmlns="http://www.w3.org/2000/svg" xmlns:xlink="http://www.w3.org/1999/xlink" width="23" height="28" viewBox="0 0 23 28">
    <defs>
        <path id="a" d="M3.394 0h16.212A3.394 3.394 0 0 1 23 3.394v16.97a3.394 3.394 0 0 1-3.394 3.394h-4.035c-.81 0-3.262 4.242-4.071 4.242-.826 0-3.295-4.242-4.121-4.242H3.394A3.394 3.394 0 0 1 0 20.364V3.394A3.394 3.394 0 0 1 3.394 0z"/>
    </defs>
    <g fill="none" fill-rule="evenodd">
        <g>
            <use fill="#2ECC71" xlink:href="#a"/>
            <path stroke="#27AE60" stroke-width=".848" d="M3.394.424a2.97 2.97 0 0 0-2.97 2.97v16.97a2.97 2.97 0 0 0 2.97 2.97H7.379c.563 0 .96.437 2.395 2.285 1.037 1.334 1.601 1.957 1.726 1.957.116 0 .678-.628 1.7-1.956 1.425-1.854 1.813-2.287 2.371-2.287h4.035a2.97 2.97 0 0 0 2.97-2.97V3.394a2.97 2.97 0 0 0-2.97-2.969H3.394z"/>
        </g>
        <path fill="#FAFFFC" fill-rule="nonzero" d="M14.509 12.637h1.334L13.78 9.64h1.257L11.5 4.5 7.962 9.64H9.22l-2.063 2.997h1.334l-1.986 2.886h3.556v2.95h2.571v-2.95h3.863z"/>
    </g>
</svg>
