<svg xmlns="http://www.w3.org/2000/svg" width="38" height="71" viewBox="0 0 38 71">
    <g fill="none" fill-rule="evenodd">
        <g fill="#24AE5F" transform="translate(2.111 37.96)">
            <ellipse cx="16.537" cy="16.52" opacity=".1" rx="8.093" ry="8.084"/>
            <ellipse cx="16.537" cy="16.52" opacity=".05" rx="16.537" ry="16.52"/>
            <ellipse cx="16.537" cy="16.52" opacity=".15" rx="3.87" ry="3.866"/>
        </g>
        <g>
            <path fill="#24AE5F" d="M18.983 0h.034C29.308 0 37.65 8.343 37.65 18.635c0 .115 0 .23-.003.345l-.243 13.132a5.959 5.959 0 0 1-5.958 5.848 8.109 8.109 0 0 0-7.677 5.498C21.19 51.04 19.6 54.832 19 54.832c-.595 0-2.074-3.719-4.438-11.156a8.199 8.199 0 0 0-7.814-5.716 6.157 6.157 0 0 1-6.156-6.043L.352 18.98C.162 8.69 8.348.194 18.638.003L18.983 0z"/>
            <rect width="32.37" height="32.337" x="2.815" y="2.812" fill="#FFF" rx="16.168"/>
            <g transform="translate(14.074 9.842)">
                <path fill="#24AE5F" fill-rule="nonzero" d="M10.652 4.613v10.263c0 .62-.498 1.123-1.111 1.123H1.11C.497 15.999 0 15.496 0 14.876V4.613c0-.62.497-1.122 1.11-1.122h8.43c.614 0 1.112.502 1.112 1.122z"/>
                <path fill="#FFF" fill-rule="nonzero" d="M6.8 11.64l2.414 1.02-.687 1.627-2.414-1.02z"/>
                <ellipse cx="8.061" cy="6.109" stroke="#ECF0F1" stroke-linecap="round" stroke-width=".579" rx="1" ry="1"/>
                <path fill="#BDC3C7" fill-rule="nonzero" d="M2.97 16.871H1.348a.487.487 0 0 1-.485-.49V16h2.59v.382c0 .271-.217.49-.485.49zM9.303 16.871H7.682a.487.487 0 0 1-.485-.49V16h2.59v.382c0 .271-.216.49-.484.49z"/>
                <path fill="#556080" fill-rule="nonzero" d="M11.227 8.145h-.575v.582h.575a.87.87 0 0 1 .864.872.87.87 0 0 1-.864.873h-.575v.582h.575c.794 0 1.44-.653 1.44-1.455s-.646-1.454-1.44-1.454zM7.197 1.164H3.742a.579.579 0 0 1-.575-.582c0-.322.257-.582.575-.582h3.455c.318 0 .576.26.576.582a.579.579 0 0 1-.576.582z"/>
                <g fill="#556080" fill-rule="nonzero" opacity=".6">
                    <path d="M4.03 1.164h1V3.49h-1zM6.333 1.164h1V3.49h-1z"/>
                </g>
            </g>
        </g>
    </g>
</svg>
