<svg xmlns="http://www.w3.org/2000/svg" width="21" height="28" viewBox="0 0 21 28">
    <g fill="none" fill-rule="evenodd">
        <path fill="#24AE5F" fill-rule="nonzero" d="M17.66 7.656v17.033a1.852 1.852 0 0 1-1.842 1.863H1.84A1.852 1.852 0 0 1 0 24.689V7.656c0-1.03.824-1.863 1.841-1.863h13.977c1.017 0 1.841.834 1.841 1.863z"/>
        <path fill="#FFF" fill-rule="nonzero" d="M11.274 19.32l4.003 1.689-1.14 2.7-4.002-1.69z"/>
        <ellipse cx="13.364" cy="10.138" stroke="#ECF0F1" stroke-linecap="round" stroke-width=".966" rx="1" ry="1.448"/>
        <path fill="#BDC3C7" fill-rule="nonzero" d="M4.923 28H2.236a.809.809 0 0 1-.804-.813v-.635h4.295v.635c0 .449-.36.813-.804.813zM15.423 28h-2.687a.809.809 0 0 1-.804-.813v-.635h4.295v.635c0 .449-.36.813-.804.813z"/>
        <path fill="#556080" fill-rule="nonzero" d="M18.614 13.517h-.955v.966h.955c.789 0 1.431.65 1.431 1.448 0 .799-.642 1.448-1.431 1.448h-.955v.966h.955c1.315 0 2.386-1.083 2.386-2.414 0-1.33-1.07-2.414-2.386-2.414zM11.932 1.931H6.205A.96.96 0 0 1 5.25.966.96.96 0 0 1 6.205 0h5.727a.96.96 0 0 1 .954.966.96.96 0 0 1-.954.965z"/>
        <g fill="#556080" fill-rule="nonzero" opacity=".6">
            <path d="M6.682 1.931h1v3.862h-1zM10.5 1.931h1v3.862h-1z"/>
        </g>
    </g>
</svg>
