<svg xmlns="http://www.w3.org/2000/svg" xmlns:xlink="http://www.w3.org/1999/xlink" width="23" height="28" viewBox="0 0 23 28">
    <defs>
        <path id="a" d="M3.394 0h16.212A3.394 3.394 0 0 1 23 3.394v16.97a3.394 3.394 0 0 1-3.394 3.394h-4.035c-.81 0-3.262 4.242-4.071 4.242-.826 0-3.295-4.242-4.121-4.242H3.394A3.394 3.394 0 0 1 0 20.364V3.394A3.394 3.394 0 0 1 3.394 0z"/>
    </defs>
    <g fill="none" fill-rule="evenodd">
        <g>
            <use fill="#9B59B6" xlink:href="#a"/>
            <path stroke="#8E44AD" stroke-width=".848" d="M3.394.424a2.97 2.97 0 0 0-2.97 2.97v16.97a2.97 2.97 0 0 0 2.97 2.97H7.379c.563 0 .96.437 2.395 2.285 1.037 1.334 1.601 1.957 1.726 1.957.116 0 .678-.628 1.7-1.956 1.425-1.854 1.813-2.287 2.371-2.287h4.035a2.97 2.97 0 0 0 2.97-2.97V3.394a2.97 2.97 0 0 0-2.97-2.969H3.394z"/>
        </g>
        <g fill="#F9ECFF" fill-rule="nonzero">
            <path d="M16.494 17.43H6.262c-.283 0-.512.276-.512.617 0 .34.229.617.512.617h10.232c.283 0 .512-.276.512-.617 0-.341-.23-.617-.512-.617zM6.901 15.826c-.283 0-.512.276-.512.617 0 .34.23.617.512.617h8.953c.283 0 .512-.276.512-.617 0-.341-.229-.617-.512-.617h-.127v-5.552h.127c.142 0 .256-.138.256-.308 0-.17-.114-.308-.256-.308H6.901c-.141 0-.255.138-.255.308 0 .17.114.308.255.308h.128v5.552h-.128zm7.802-5.552v5.552h-1.535v-5.552h1.535zm-2.558 0v5.552H10.61v-5.552h1.535zm-4.093 0h1.535v5.552H8.052v-5.552zM6.262 9.103h10.237c.283 0 .512-.276.512-.617 0-.27-.145-.5-.346-.583l-5.077-2.755a.434.434 0 0 0-.42 0L6.052 7.924c-.22.12-.341.408-.29.692.05.284.258.487.5.487z"/>
        </g>
    </g>
</svg>
