<svg xmlns="http://www.w3.org/2000/svg" xmlns:xlink="http://www.w3.org/1999/xlink" width="23" height="28" viewBox="0 0 23 28">
    <defs>
        <path id="a" d="M3.394 0h16.212A3.394 3.394 0 0 1 23 3.394v16.97a3.394 3.394 0 0 1-3.394 3.394h-4.035c-.81 0-3.262 4.242-4.071 4.242-.826 0-3.295-4.242-4.121-4.242H3.394A3.394 3.394 0 0 1 0 20.364V3.394A3.394 3.394 0 0 1 3.394 0z"/>
    </defs>
    <g fill="none" fill-rule="evenodd">
        <g>
            <use fill="#19BDAC" xlink:href="#a"/>
            <path stroke="#16A697" stroke-width=".848" d="M3.394.424a2.97 2.97 0 0 0-2.97 2.97v16.97a2.97 2.97 0 0 0 2.97 2.97H7.379c.563 0 .96.437 2.395 2.285 1.037 1.334 1.601 1.957 1.726 1.957.116 0 .678-.628 1.7-1.956 1.425-1.854 1.813-2.287 2.371-2.287h4.035a2.97 2.97 0 0 0 2.97-2.97V3.394a2.97 2.97 0 0 0-2.97-2.969H3.394z"/>
        </g>
        <path fill="#FFF" fill-rule="nonzero" d="M17.923 18.454c-.83-.99-2.316-1.746-4.113-2.054-.176-1.062-.49-1.558-.498-1.572a.746.746 0 0 1 .49-.044c.23.052.387.175.482.33.028.046.099.03.107-.022a.599.599 0 0 0-.018-.255.662.662 0 0 0-.48-.478.633.633 0 0 0-.433.062c.119-.104.267-.189.447-.248.39-.126.729-.064.993.106.044.028.1-.013.085-.065a.937.937 0 0 0-.293-.46c-.273-.242-.652-.347-.996-.232a1.01 1.01 0 0 0-.3.161l.02-.025c.253-.3.558-.43.86-.438.065-.002.094-.087.044-.13a.923.923 0 0 0-.41-.197c-.383-.083-.787.033-1.03.343-.088.111-.149.236-.184.365a1.003 1.003 0 0 0-.36-.189c-.377-.108-.772.036-1.036.328a.928.928 0 0 0-.215.39c-.018.067.059.122.117.084.247-.167.567-.238.943-.145a.57.57 0 0 0 .03.009.994.994 0 0 0-.336.045c-.347.11-.594.417-.676.774a.943.943 0 0 0 .023.532c.02.056.095.057.117.003.12-.288.357-.531.74-.655.18-.059.35-.077.506-.063a.631.631 0 0 0-.387.205.669.669 0 0 0-.114.67.59.59 0 0 0 .134.22c.037.037.102.008.098-.044a.735.735 0 0 1 .2-.552c.12-.136.258-.224.398-.243 0 0 .22.547.25 1.336-.367-.038-.744-.06-1.13-.06-.944 0-1.842.12-2.655.334.169-3.703 2.428-6.157 2.43-6.17.28.186.514.47.666.87.198.518.164.988-.015 1.376-.051.11.069.228.18.176.165-.077.325-.194.471-.367.363-.43.504-1.032.298-1.557a1.498 1.498 0 0 0-.679-.77c.353.1.708.28 1.055.556.735.59 1.056 1.32 1.082 2.045.005.137.17.198.257.093.24-.289.42-.656.484-1.144.113-.847-.176-1.725-.843-2.251a2.331 2.331 0 0 0-.699-.38l.074.007c.898.106 1.538.527 1.942 1.096.094.133.308.076.323-.086a2.178 2.178 0 0 0-.152-1.029c-.338-.858-1.083-1.498-1.995-1.576a2.332 2.332 0 0 0-.94.112 2.383 2.383 0 0 0-.104-.947c-.28-.88-1.068-1.467-1.972-1.606a2.126 2.126 0 0 0-1.052.09c-.144.052-.15.263-.01.32.652.266 1.212.802 1.52 1.67.01.024.017.048.025.071a2.35 2.35 0 0 0-.525-.6c-.659-.537-1.572-.623-2.364-.321-.47.179-.79.45-1.015.762-.073.1.013.236.133.21.716-.15 1.506-.004 2.253.595.346.278.6.586.775.91a1.48 1.48 0 0 0-.897-.492c-.553-.084-1.102.19-1.435.644a1.39 1.39 0 0 0-.247.543c-.026.121.116.214.213.138.334-.262.779-.4 1.323-.323.446.063.789.248 1.035.503-.044.038-2.77 2.09-4.556 8.372-.109.105-.21.213-.303.324-.183.22-.028.556.255.556h11.332a.334.334 0 0 0 .257-.546z"/>
    </g>
</svg>
