<svg xmlns="http://www.w3.org/2000/svg" xmlns:xlink="http://www.w3.org/1999/xlink" width="23" height="28" viewBox="0 0 23 28">
    <defs>
        <path id="a" d="M3.394 0h16.212A3.394 3.394 0 0 1 23 3.394v16.97a3.394 3.394 0 0 1-3.394 3.394h-4.035c-.81 0-3.262 4.242-4.071 4.242-.826 0-3.295-4.242-4.121-4.242H3.394A3.394 3.394 0 0 1 0 20.364V3.394A3.394 3.394 0 0 1 3.394 0z"/>
    </defs>
    <g fill="none" fill-rule="evenodd">
        <g>
            <use fill="#FD7EFF" xlink:href="#a"/>
            <path stroke="#D33ED6" stroke-width=".848" d="M3.394.424a2.97 2.97 0 0 0-2.97 2.97v16.97a2.97 2.97 0 0 0 2.97 2.97H7.379c.563 0 .96.437 2.395 2.285 1.037 1.334 1.601 1.957 1.726 1.957.116 0 .678-.628 1.7-1.956 1.425-1.854 1.813-2.287 2.371-2.287h4.035a2.97 2.97 0 0 0 2.97-2.97V3.394a2.97 2.97 0 0 0-2.97-2.969H3.394z"/>
        </g>
        <g fill="#F6FFFA" fill-rule="nonzero">
            <path d="M15.513 9.924a3.205 3.205 0 0 0-.77-.285 3.06 3.06 0 0 0 .532-.608c.131-.2.138-.453.017-.66a.673.673 0 0 0-.583-.33H14.7a3.24 3.24 0 0 0-.814.121 2.96 2.96 0 0 0 .15-.76.654.654 0 0 0-.25-.554.688.688 0 0 0-.758-.053 3.141 3.141 0 0 0-.668.519 3.107 3.107 0 0 0-.337-.977.673.673 0 0 0-.587-.337c-.246 0-.471.13-.588.337-.16.284-.275.622-.34.987a3.15 3.15 0 0 0-.676-.53.69.69 0 0 0-.684.004.641.641 0 0 0-.324.582c.01.25.062.515.15.782a3.24 3.24 0 0 0-.814-.122.675.675 0 0 0-.592.33.628.628 0 0 0 .017.661c.138.213.319.418.532.608a3.204 3.204 0 0 0-.77.285.643.643 0 0 0-.344.57.644.644 0 0 0 .353.565c.23.119.492.21.775.273-.204.188-.377.39-.51.597a.643.643 0 0 0-.053.614.67.67 0 0 0 .633.387c.26-.008.534-.054.812-.135-.081.26-.128.519-.137.763a.654.654 0 0 0 .274.561.686.686 0 0 0 .743.03c.216-.127.426-.294.622-.492.065.353.177.68.333.956.053.094.13.173.219.23v1.156a2.032 2.032 0 0 0-.271-.322c-.32-.309-.707-.49-1.06-.526a.21.21 0 0 0-.235.228c.037.34.224.714.544 1.023.309.299.68.477 1.022.521v.69c0 .19.15.352.345.361.209.01.381-.15.381-.35v-.7c.343-.045.713-.223 1.022-.522.32-.309.507-.682.544-1.023a.21.21 0 0 0-.235-.228c-.353.036-.74.217-1.06.526-.105.102-.195.21-.27.322v-1.15a.655.655 0 0 0 .23-.236 3.09 3.09 0 0 0 .33-.946c.193.193.4.357.613.482a.686.686 0 0 0 .744-.03.654.654 0 0 0 .273-.561 2.958 2.958 0 0 0-.137-.763c.278.081.553.127.812.135h.02a.67.67 0 0 0 .613-.387.643.643 0 0 0-.053-.614 3.076 3.076 0 0 0-.51-.597c.283-.063.545-.154.775-.273a.644.644 0 0 0 .353-.565.643.643 0 0 0-.344-.57zm-4.076 2.833c-1.288 0-2.336-1.012-2.336-2.256 0-1.245 1.048-2.257 2.336-2.257 1.288 0 2.336 1.012 2.336 2.257 0 1.244-1.048 2.256-2.336 2.256z"/>
            <path d="M11.437 8.946c-.888 0-1.61.697-1.61 1.555 0 .857.722 1.555 1.61 1.555.887 0 1.61-.698 1.61-1.555 0-.858-.723-1.555-1.61-1.555z"/>
        </g>
    </g>
</svg>
