<svg xmlns="http://www.w3.org/2000/svg" xmlns:xlink="http://www.w3.org/1999/xlink" width="24" height="28" viewBox="0 0 24 28">
    <defs>
        <path id="a" d="M3.41 0h17.18A3.41 3.41 0 0 1 24 3.41v16.937a3.41 3.41 0 0 1-3.41 3.41h-4.342C15.404 23.758 12.845 28 12 28c-.862 0-3.439-4.242-4.3-4.242H3.41A3.41 3.41 0 0 1 0 20.347V3.41A3.41 3.41 0 0 1 3.41 0z"/>
    </defs>
    <g fill="none" fill-rule="evenodd">
        <g>
            <use fill="#3498DB" xlink:href="#a"/>
            <path stroke="#2980B9" stroke-width=".853" d="M3.41.426A2.985 2.985 0 0 0 .427 3.411v16.936a2.985 2.985 0 0 0 2.985 2.984h4.288c.574 0 .997.448 2.482 2.28 1.094 1.35 1.674 1.963 1.819 1.963.136 0 .713-.618 1.792-1.962 1.474-1.838 1.888-2.28 2.456-2.28h4.341a2.985 2.985 0 0 0 2.985-2.985V3.41A2.985 2.985 0 0 0 20.589.426H3.411z"/>
        </g>
        <g fill="#F9F9FF" fill-rule="nonzero">
            <path d="M19.207 14.313a1.928 1.928 0 0 1-1.42-.611.52.52 0 0 0-.382-.165.52.52 0 0 0-.382.165 1.928 1.928 0 0 1-1.42.61 1.928 1.928 0 0 1-1.42-.61.52.52 0 0 0-.382-.165.52.52 0 0 0-.382.164 1.928 1.928 0 0 1-1.42.612 1.928 1.928 0 0 1-1.42-.612.52.52 0 0 0-.382-.164.52.52 0 0 0-.383.164 1.928 1.928 0 0 1-1.42.612 1.928 1.928 0 0 1-1.419-.611.52.52 0 0 0-.382-.165.52.52 0 0 0-.383.165 1.928 1.928 0 0 1-1.42.61c-.278 0-.504.213-.504.474 0 .262.226.474.505.474a3.015 3.015 0 0 0 1.802-.594 3.014 3.014 0 0 0 1.802.594 3.015 3.015 0 0 0 1.802-.594 3.014 3.014 0 0 0 1.802.594 3.014 3.014 0 0 0 1.802-.594 3.015 3.015 0 0 0 1.802.594 3.014 3.014 0 0 0 1.802-.594 3.015 3.015 0 0 0 1.802.594c.28 0 .505-.212.505-.474 0-.261-.226-.473-.505-.473zM19.207 11.792a1.928 1.928 0 0 1-1.42-.611.52.52 0 0 0-.382-.164.52.52 0 0 0-.382.164 1.928 1.928 0 0 1-1.42.611 1.928 1.928 0 0 1-1.42-.611.52.52 0 0 0-.382-.164.52.52 0 0 0-.382.164 1.928 1.928 0 0 1-1.42.61 1.928 1.928 0 0 1-1.42-.61.52.52 0 0 0-.382-.164.52.52 0 0 0-.383.164 1.928 1.928 0 0 1-1.42.611 1.928 1.928 0 0 1-1.419-.611.52.52 0 0 0-.382-.164.52.52 0 0 0-.383.164 1.928 1.928 0 0 1-1.42.611c-.278 0-.504.212-.504.474 0 .261.226.473.505.473a3.015 3.015 0 0 0 1.802-.594 3.014 3.014 0 0 0 1.802.594 3.015 3.015 0 0 0 1.802-.594 3.014 3.014 0 0 0 1.802.594 3.014 3.014 0 0 0 1.802-.594 3.015 3.015 0 0 0 1.802.594 3.014 3.014 0 0 0 1.802-.594 3.015 3.015 0 0 0 1.802.594c.28 0 .505-.212.505-.473 0-.262-.226-.474-.505-.474zM4.79 10.218a3.015 3.015 0 0 0 1.803-.593 3.014 3.014 0 0 0 1.802.594 3.015 3.015 0 0 0 1.802-.594 3.014 3.014 0 0 0 1.802.594 3.014 3.014 0 0 0 1.802-.594 3.015 3.015 0 0 0 1.802.594 3.014 3.014 0 0 0 1.802-.594 3.015 3.015 0 0 0 1.802.594c.28 0 .505-.213.505-.474 0-.262-.226-.474-.505-.474a1.928 1.928 0 0 1-1.42-.61.52.52 0 0 0-.382-.165.52.52 0 0 0-.382.164 1.928 1.928 0 0 1-1.42.611 1.928 1.928 0 0 1-1.42-.61.52.52 0 0 0-.382-.165.52.52 0 0 0-.382.164 1.928 1.928 0 0 1-1.42.611 1.928 1.928 0 0 1-1.42-.61.52.52 0 0 0-.382-.165.52.52 0 0 0-.382.164 1.928 1.928 0 0 1-1.42.611 1.928 1.928 0 0 1-1.42-.61.52.52 0 0 0-.382-.165.52.52 0 0 0-.383.164 1.928 1.928 0 0 1-1.42.611c-.278 0-.504.212-.504.474 0 .261.226.473.505.473z"/>
        </g>
    </g>
</svg>
