<svg xmlns="http://www.w3.org/2000/svg" width="210" height="25" viewBox="0 0 210 25">
    <g fill="none" fill-rule="evenodd">
        <g transform="translate(0 .5)">
            <path fill="#24AE5F" fill-rule="nonzero" d="M15.136 6.562v14.6c0 .882-.706 1.597-1.578 1.597H1.578A1.587 1.587 0 0 1 0 21.162v-14.6c0-.882.707-1.596 1.578-1.596h11.98c.872 0 1.578.714 1.578 1.596z"/>
            <path fill="#FFF" fill-rule="nonzero" d="M9.664 16.56l3.432 1.448-.977 2.315-3.432-1.449z"/>
            <ellipse cx="11.455" cy="8.69" stroke="#ECF0F1" stroke-linecap="round" stroke-width=".828" rx="1" ry="1.241"/>
            <path fill="#BDC3C7" fill-rule="nonzero" d="M4.22 24H1.917a.693.693 0 0 1-.69-.697v-.544H4.91v.544a.693.693 0 0 1-.69.697zM13.22 24h-2.303a.693.693 0 0 1-.69-.697v-.544h3.682v.544a.693.693 0 0 1-.69.697z"/>
            <path fill="#556080" fill-rule="nonzero" d="M15.955 11.586h-.819v.828h.819c.676 0 1.227.557 1.227 1.241 0 .685-.55 1.242-1.227 1.242h-.819v.827h.819c1.127 0 2.045-.928 2.045-2.069 0-1.14-.918-2.069-2.045-2.069zM10.227 1.655H5.318A.823.823 0 0 1 4.5.828C4.5.37 4.866 0 5.318 0h4.91c.451 0 .817.37.817.828a.823.823 0 0 1-.818.827z"/>
            <g fill="#556080" fill-rule="nonzero" opacity=".6">
                <path d="M5.727 1.655h1v3.31h-1zM9 1.655h1v3.31H9z"/>
            </g>
        </g>
        <text font-family="Nunito-Bold, Nunito" font-size="25" font-weight="bold" transform="translate(0 -4)">
            <tspan x="24.5" y="25" fill="#24AE5F">Travel</tspan> <tspan x="95.675" y="25" fill="#38454F" font-family="Nunito-Regular, Nunito" font-weight="normal">Nusantara</tspan>
        </text>
    </g>
</svg>
