<svg xmlns="http://www.w3.org/2000/svg" width="54" height="101" viewBox="0 0 54 101">
    <g fill="none" fill-rule="evenodd">
        <g fill="#24AE5F" transform="translate(3 54)">
            <circle cx="23.5" cy="23.5" r="11.5" opacity=".1"/>
            <circle cx="23.5" cy="23.5" r="23.5" opacity=".05"/>
            <circle cx="23.5" cy="23.5" r="5.5" opacity=".15"/>
        </g>
        <g>
            <path fill="#24AE5F" d="M27 0c14.638 0 26.505 11.867 26.505 26.505 0 .163-.002.327-.005.49l-.346 18.694A8.468 8.468 0 0 1 44.688 54a11.52 11.52 0 0 0-10.907 7.813C30.114 72.604 27.854 78 27 78c-.846 0-2.949-5.292-6.31-15.877A11.647 11.647 0 0 0 9.59 54 8.75 8.75 0 0 1 .84 45.412L.5 26.995C.229 12.36 11.874.275 26.51.005 26.672.002 26.835 0 27 0z"/>
            <rect width="46" height="46" x="4" y="4" fill="#FFF" rx="23"/>
            <g transform="translate(20 14)">
                <path fill="#24AE5F" fill-rule="nonzero" d="M15.136 6.562v14.6c0 .882-.706 1.597-1.578 1.597H1.578A1.587 1.587 0 0 1 0 21.162v-14.6c0-.882.707-1.596 1.578-1.596h11.98c.872 0 1.578.714 1.578 1.596z"/>
                <path fill="#FFF" fill-rule="nonzero" d="M9.664 16.56l3.432 1.448-.977 2.315-3.432-1.449z"/>
                <ellipse cx="11.455" cy="8.69" stroke="#ECF0F1" stroke-linecap="round" stroke-width=".828" rx="1" ry="1.241"/>
                <path fill="#BDC3C7" fill-rule="nonzero" d="M4.22 24H1.917a.693.693 0 0 1-.69-.697v-.544H4.91v.544a.693.693 0 0 1-.69.697zM13.22 24h-2.303a.693.693 0 0 1-.69-.697v-.544h3.682v.544a.693.693 0 0 1-.69.697z"/>
                <path fill="#556080" fill-rule="nonzero" d="M15.955 11.586h-.819v.828h.819c.676 0 1.227.557 1.227 1.241 0 .685-.55 1.242-1.227 1.242h-.819v.827h.819c1.127 0 2.045-.928 2.045-2.069 0-1.14-.918-2.069-2.045-2.069zM10.227 1.655H5.318A.823.823 0 0 1 4.5.828C4.5.37 4.866 0 5.318 0h4.91c.451 0 .817.37.817.828a.823.823 0 0 1-.818.827z"/>
                <g fill="#556080" fill-rule="nonzero" opacity=".6">
                    <path d="M5.727 1.655h1v3.31h-1zM9 1.655h1v3.31H9z"/>
                </g>
            </g>
        </g>
    </g>
</svg>
